<svg xmlns="http://www.w3.org/2000/svg" version="1.1" xmlns:xlink="http://www.w3.org/1999/xlink" width="512" height="512" x="0" y="0" viewBox="0 0 64 64" style="enable-background:new 0 0 512 512" xml:space="preserve" class=""><g><path d="M20 49c1.654 0 3-1.346 3-3s-1.346-3-3-3-3 1.346-3 3 1.346 3 3 3zm0-4a1.001 1.001 0 1 1-1 1c0-.552.449-1 1-1zM1 61h62v2H1z" fill="#0095CF" opacity="1" data-original="#000000"></path><circle cx="23" cy="16" r="1" fill="#0095CF" opacity="1" data-original="#000000"></circle><circle cx="17" cy="16" r="1" fill="#0095CF" opacity="1" data-original="#000000"></circle><path d="M22 18.764c-.381.762-1.147 1.236-2 1.236s-1.619-.474-2-1.236l-.105-.211-1.789.895.105.211C16.933 21.103 18.385 22 20 22s3.067-.897 3.789-2.342l.105-.211-1.789-.895z" fill="#0095CF" opacity="1" data-original="#000000"></path><path d="M61 23c1.103 0 2-.897 2-2V3c0-1.103-.897-2-2-2H43c-1.103 0-2 .897-2 2v18h-9v-8c0-6.617-5.383-12-12-12S8 6.383 8 13v15.524c-.418.177-.831.37-1.229.598A11.478 11.478 0 0 0 1 39.066V48c0 2.757 2.243 5 5 5h1v2c0 2.206 1.794 4 4 4h18c2.206 0 4-1.794 4-4v-2h1c2.757 0 5-2.243 5-5v-1h22c1.103 0 2-.897 2-2V27c0-1.103-.897-2-2-2H43c-1.103 0-2 .897-2 2v18h-2v-5.934c0-4.1-2.211-7.91-5.771-9.944-.398-.228-.81-.421-1.229-.598V23zM49 10c0-1.654 1.346-3 3-3s3 1.346 3 3-1.346 3-3 3-3-1.346-3-3zm8 11H47v-1c0-2.757 2.243-5 5-5s5 2.243 5 5zM43 3h18v18h-2v-1a7.002 7.002 0 0 0-3.779-6.208C56.3 12.874 57 11.524 57 10c0-2.757-2.243-5-5-5s-5 2.243-5 5c0 1.524.7 2.874 1.779 3.792A7.002 7.002 0 0 0 45 20v1h-2zm6 31c0-1.654 1.346-3 3-3s3 1.346 3 3-1.346 3-3 3-3-1.346-3-3zm8 11H47v-1c0-2.757 2.243-5 5-5s5 2.243 5 5zM43 27h18v18h-2v-1a7.002 7.002 0 0 0-3.779-6.208C56.3 36.874 57 35.524 57 34c0-2.757-2.243-5-5-5s-5 2.243-5 5c0 1.524.7 2.874 1.779 3.792A7.002 7.002 0 0 0 45 44v1h-2zM30 17c0 1.103-.897 2-2 2h-.069c.041-.328.069-.661.069-1v-5c1.103 0 2 .897 2 2zM20 3c4.999 0 9.14 3.69 9.873 8.487A3.957 3.957 0 0 0 28 11h-8c-1.103 0-2-.897-2-2s.897-2 2-2 2 .897 2 2h2c0-2.206-1.794-4-4-4-2.067 0-3.753 1.582-3.959 3.596A6.978 6.978 0 0 0 13.213 11H12c-.68 0-1.312.187-1.873.487C10.86 6.69 15.001 3 20 3zm2.52 23.351a3.994 3.994 0 0 0 3.296 2.918l.236.034L25.034 31H14.966l-1.018-1.697.236-.034a3.994 3.994 0 0 0 2.369-1.27H17a2.995 2.995 0 0 0 2.82-2.013c.06.002.12.014.18.014.811 0 1.593-.123 2.331-.349zM31 53H9V39h22zM18.566 37l-2.4-4h7.667l-2.4 4zM15 26c-.551 0-1-.449-1-1s.449-1 1-1h2c.551 0 1 .449 1 1s-.449 1-1 1zm5-2c-.063 0-.125-.011-.188-.013A2.996 2.996 0 0 0 17 22h-1.463A5.946 5.946 0 0 1 14 18v-3.081c0-1.756.929-3.346 2.38-4.243A3.997 3.997 0 0 0 20 13h6v5c0 3.309-2.691 6-6 6zm-10-9c0-1.103.897-2 2-2h.283A6.97 6.97 0 0 0 12 14.919V18c0 .338.028.67.069 1H12c-1.103 0-2-.897-2-2zm0 5.444A3.959 3.959 0 0 0 12 21h.583c.21.52.471 1.019.79 1.486A2.999 2.999 0 0 0 12.184 24H12c-1.103 0-2-.897-2-2zm0 5A3.959 3.959 0 0 0 12 26h.184a2.993 2.993 0 0 0 1.021 1.389l-2.372.339c-.282.04-.558.099-.834.159v-2.443zm-2.236 5.414a9.424 9.424 0 0 1 3.354-1.151l.682-.097L16.234 37H9c-1.103 0-2 .897-2 2v2H3v-1.934a9.475 9.475 0 0 1 4.764-8.208zM6 51c-1.654 0-3-1.346-3-3v-5h4v2H5v2h2v4zm23 6H11c-1.103 0-2-.897-2-2h22c0 1.103-.897 2-2 2zm5-6h-1v-4h2v-2h-2v-2h4v5c0 1.654-1.346 3-3 3zm3-11.934V41h-4v-2c0-1.103-.897-2-2-2h-7.234l4.434-7.39.683.097a9.411 9.411 0 0 1 3.354 1.151A9.477 9.477 0 0 1 37 39.066zm-7.834-11.338-3.067-.438a2 2 0 0 1-1.648-1.459l-.275-1.02A8.036 8.036 0 0 0 27.411 21H28c.732 0 1.409-.212 2-.556v7.444c-.276-.061-.552-.12-.834-.16z" fill="#0095CF" opacity="1" data-original="#000000"></path><path d="M41 49h10v2H41zM53 49h10v2H53zM43 53h18v2H43zM51 57h2v2h-2zM55 57h2v2h-2zM47 57h2v2h-2z" fill="#0095CF" opacity="1" data-original="#000000"></path></g></svg>