<svg xmlns="http://www.w3.org/2000/svg" version="1.1" xmlns:xlink="http://www.w3.org/1999/xlink" width="512" height="512" x="0" y="0" viewBox="0 0 682.667 682.667" style="enable-background:new 0 0 512 512" xml:space="preserve" class=""><g><defs><clipPath id="a" clipPathUnits="userSpaceOnUse"><path d="M0 512h512V0H0Z" fill="#0095CF" opacity="1" data-original="#000000"></path></clipPath></defs><g clip-path="url(#a)" transform="matrix(1.33333 0 0 -1.33333 0 682.667)"><path d="M0 0v16.103c0 15.029 12.184 27.212 27.213 27.212h156.428c15.028 0 27.212-12.183 27.212-27.212V1.489" style="stroke-width:20;stroke-linecap:round;stroke-linejoin:round;stroke-miterlimit:10;stroke-dasharray:none;stroke-opacity:1" transform="translate(150.576 187.17)" fill="none" stroke="#0095CF" stroke-width="20" stroke-linecap="round" stroke-linejoin="round" stroke-miterlimit="10" stroke-dasharray="none" stroke-opacity="" data-original="#000000" class="" opacity="1"></path><path d="M0 0v134.701c0-19.419-15.734-35.16-35.143-35.16s-35.143 15.741-35.143 35.16c0-19.419-15.734-35.16-35.143-35.16-19.408 0-35.142 15.741-35.142 35.16 0-19.419-15.735-35.16-35.143-35.16-19.409 0-35.143 15.741-35.143 35.16 0-19.419-15.734-35.16-35.143-35.16s-35.143 15.741-35.143 35.16c0-19.419-15.734-35.16-35.143-35.16-19.408 0-35.143 15.741-35.143 35.16 0-19.419-15.734-35.16-35.142-35.16-19.409 0-35.143 15.741-35.143 35.16 0-19.419-15.734-35.16-35.143-35.16S-492 115.282-492 134.701V0" style="stroke-width:20;stroke-linecap:round;stroke-linejoin:round;stroke-miterlimit:10;stroke-dasharray:none;stroke-opacity:1" transform="translate(502 58.072)" fill="none" stroke="#0095CF" stroke-width="20" stroke-linecap="round" stroke-linejoin="round" stroke-miterlimit="10" stroke-dasharray="none" stroke-opacity="" data-original="#000000" class="" opacity="1"></path><path d="M0 0h-200.794v103.192c0-19.418 15.734-35.159 35.143-35.159s35.143 15.741 35.143 35.159c0-19.418 15.734-35.159 35.143-35.159 19.408 0 35.142 15.741 35.142 35.159 0-19.418 15.735-35.159 35.143-35.159 19.409 0 35.143 15.741 35.143 35.159 0-19.418 15.734-35.159 35.143-35.159s35.143 15.741 35.143 35.159c0-19.418 15.734-35.159 35.143-35.159 19.408 0 35.143 15.741 35.143 35.159 0-19.418 15.734-35.159 35.142-35.159 19.41 0 35.143 15.741 35.143 35.159 0-19.418 15.734-35.159 35.143-35.159s35.143 15.741 35.143 35.159V0H90.412" style="stroke-width:20;stroke-linecap:round;stroke-linejoin:round;stroke-miterlimit:10;stroke-dasharray:none;stroke-opacity:1" transform="translate(210.794 10)" fill="none" stroke="#0095CF" stroke-width="20" stroke-linecap="round" stroke-linejoin="round" stroke-miterlimit="10" stroke-dasharray="none" stroke-opacity="" data-original="#000000" class="" opacity="1"></path><path d="M0 0v0" style="stroke-width:20;stroke-linecap:round;stroke-linejoin:round;stroke-miterlimit:10;stroke-dasharray:none;stroke-opacity:1" transform="translate(256.184 10)" fill="none" stroke="#0095CF" stroke-width="20" stroke-linecap="round" stroke-linejoin="round" stroke-miterlimit="10" stroke-dasharray="none" stroke-opacity="" data-original="#000000" class="" opacity="1"></path><path d="M0 0c0 63.911-51.811 115.721-115.721 115.721-63.911 0-115.72-51.81-115.72-115.721 0-56.282 40.179-103.178 93.419-113.572l22.301-42.221 22.302 42.221C-40.18-103.178 0-56.282 0 0Z" style="stroke-width:20;stroke-linecap:round;stroke-linejoin:round;stroke-miterlimit:10;stroke-dasharray:none;stroke-opacity:1" transform="translate(371.904 386.28)" fill="none" stroke="#0095CF" stroke-width="20" stroke-linecap="round" stroke-linejoin="round" stroke-miterlimit="10" stroke-dasharray="none" stroke-opacity="" data-original="#000000" class="" opacity="1"></path><path d="M0 0c-38.451 0-69.732 31.282-69.732 69.732S-38.451 139.463 0 139.463c38.45 0 69.731-31.281 69.731-69.731C69.731 31.282 38.45 0 0 0Z" style="stroke-width:20;stroke-linecap:round;stroke-linejoin:round;stroke-miterlimit:10;stroke-dasharray:none;stroke-opacity:1" transform="translate(256.184 316.548)" fill="none" stroke="#0095CF" stroke-width="20" stroke-linecap="round" stroke-linejoin="round" stroke-miterlimit="10" stroke-dasharray="none" stroke-opacity="" data-original="#000000" class="" opacity="1"></path></g></g></svg>