<svg xmlns="http://www.w3.org/2000/svg" version="1.1" xmlns:xlink="http://www.w3.org/1999/xlink" width="512" height="512" x="0" y="0" viewBox="0 0 60 60" style="enable-background:new 0 0 512 512" xml:space="preserve"><g><path d="M59 48a1 1 0 0 0 .572-1.821l-3.188-2.218a5.749 5.749 0 0 0-6.366 0l-.577.4a3.738 3.738 0 0 1-4.081 0l-.576-.4a5.749 5.749 0 0 0-6.366 0l-.576.4a3.736 3.736 0 0 1-4.082 0l-.576-.4a5.159 5.159 0 0 0-1.122-.572l3.247-7.57a3 3 0 0 0-.927-3.559l-.32-.246L43.7 6H48v6.743c-1.137 2.078-8.946 16.839-5.188 23.25C43.98 37.988 46.062 39 49 39s5.02-1.012 6.188-3.007c3.758-6.411-4.051-21.172-5.188-23.25V6a2 2 0 0 0-2-2h-4.3a2.007 2.007 0 0 0-1.88 1.306L32.4 30.738 31 29.661V21h1a2 2 0 0 0 2-2v-3a2 2 0 0 0-2-2h-4.28l-1.543-4.632A2 2 0 0 0 24.279 8H23V1a1 1 0 0 0-1-1h-8a2 2 0 0 0-2 2v2a2 2 0 0 0 2 2h7v2h-1.279a2 2 0 0 0-1.9 1.367L16.28 14H12a2 2 0 0 0-2 2v3a2 2 0 0 0 2 2h1v8.66l-3.381 2.6a3 3 0 0 0-.927 3.559l3.925 9.148a3.591 3.591 0 0 1-2.057-.605l-.577-.4a5.749 5.749 0 0 0-6.366 0L.429 46.179a1 1 0 1 0 1.142 1.642L4.76 45.6a3.733 3.733 0 0 1 4.081 0l.576.4a5.742 5.742 0 0 0 6.366 0l.576-.4a3.733 3.733 0 0 1 4.081 0l.577.4a5.746 5.746 0 0 0 6.365 0l.578-.4a3.733 3.733 0 0 1 4.081 0l.576.4a5.742 5.742 0 0 0 6.366 0l.577-.4a3.733 3.733 0 0 1 4.081 0l.576.4a5.742 5.742 0 0 0 6.366 0l.576-.4a3.733 3.733 0 0 1 4.081 0l3.189 2.217A1 1 0 0 0 59 48ZM48 36.942A4.228 4.228 0 0 1 44.55 35H48ZM48 33h-4.113a11.849 11.849 0 0 1-.011-3H48Zm0-5h-3.816A33.7 33.7 0 0 1 45 24.843V25h3Zm0-5h-2.394A64.646 64.646 0 0 1 48 17.178Zm2-5.822A64.646 64.646 0 0 1 52.394 23H50ZM50 25h3v-.157A33.7 33.7 0 0 1 53.816 28H50Zm0 5h4.124a11.849 11.849 0 0 1-.011 3H50Zm0 5h3.45A4.228 4.228 0 0 1 50 36.942ZM28 16h4v3h-4Zm-2 0v3h-3v-3ZM14 4V2h7v2Zm5.721 6h4.558l1.333 4h-7.224ZM18 16h3v3h-3Zm11 5v7.122l-5.781-4.446a2 2 0 0 0-2.438 0L15 28.122V21Zm-17-2v-3h4v3h-4Zm18.051 24a5.6 5.6 0 0 0-3.233.958l-.578.4a3.738 3.738 0 0 1-4.081 0l-.576-.4a5.749 5.749 0 0 0-6.366 0l-.576.4c-.028.019-.059.031-.087.049l-4.024-9.374a1 1 0 0 1 .31-1.187L21 26.031V39a1 1 0 0 0 2 0V26.031l10.16 7.815a1 1 0 0 1 .31 1.186ZM28.276 51.213a5.029 5.029 0 0 0-6.528 0l-.578.5a3.018 3.018 0 0 1-3.917 0l-.577-.5a5.031 5.031 0 0 0-6.53 0l-.576.5a3.018 3.018 0 0 1-3.917 0 1 1 0 1 0-1.306 1.515 5.03 5.03 0 0 0 6.53 0l.575-.5a3.02 3.02 0 0 1 3.918 0l.576.5a5.032 5.032 0 0 0 6.53 0l.578-.5a3.015 3.015 0 0 1 3.916 0 1 1 0 1 0 1.306-1.515ZM39.877 58.225l.575-.5a3.02 3.02 0 0 1 3.918 0l.576.5a5.032 5.032 0 0 0 6.53 0l.578-.5a3.015 3.015 0 0 1 3.916 0 1 1 0 1 0 1.306-1.515 5.029 5.029 0 0 0-6.528 0l-.578.5a3.018 3.018 0 0 1-3.917 0l-.577-.5a5.031 5.031 0 0 0-6.53 0l-.576.5a3.018 3.018 0 0 1-3.917 0 1 1 0 1 0-1.306 1.515 5.031 5.031 0 0 0 6.53 0Z" fill="#0095CF" opacity="1" data-original="#000000"></path></g></svg>