<svg xmlns="http://www.w3.org/2000/svg" version="1.1" xmlns:xlink="http://www.w3.org/1999/xlink" width="512" height="512" x="0" y="0" viewBox="0 0 511.999 511.999" style="enable-background:new 0 0 512 512" xml:space="preserve" class=""><g><path d="M380.508 256.604c-5.243-7.7-16.521-.9-13.159 7.029.308.788.884 1.705 1.619 2.441 6.275 6.271 16.561-1.857 11.54-9.47z" fill="#0095CF" opacity="1" data-original="#000000"></path><path d="M468.339 195.015a7.495 7.495 0 0 0-10.455-1.785 7.5 7.5 0 0 0-1.785 10.455c41.252 58.239 9.59 140.479-60.344 155.752v-30.003a71.617 71.617 0 0 0 33.866-23.087c37.278-45.964 4.86-115.998-55.322-116.028-53.282.026-87.841 56.758-63.146 104.21a7.498 7.498 0 0 0 10.114 3.192 7.498 7.498 0 0 0 3.192-10.114c-19.929-39.294 9.213-82.268 49.839-82.288 30.984.016 56.192 25.236 56.192 56.221 0 22.838-14.149 43.363-34.736 51.94.17-22.788-.407-22.788.461-23.459 17.993-13.884 18.696-40.398 1.999-55.312-21.989-19.64-56.595-5.768-59.702 22.855-1.356 12.491 3.732 24.566 13.611 32.302h.001c1.194.937.419.933.66 23.635a56.62 56.62 0 0 1-7.036-3.522 7.499 7.499 0 0 0-10.271 2.645 7.499 7.499 0 0 0 2.645 10.271 70.963 70.963 0 0 0 14.663 6.553v29.99c-49.802-10.877-84.64-58.511-77.879-110.903 9.505-73.014 92.647-111.379 154.337-70.769 4.754 3.131 5.461 4.346 8.594 4.346 7.227-.003 10.282-9.271 4.439-13.551-30.892-22.627-48.49-53.678-56.091-90.279l49.631-21.873h8.78c15.552 0 28.204-12.652 28.204-28.204C472.799 12.652 460.147 0 444.595 0H304.311a7.5 7.5 0 0 0 0 15h140.284c7.28 0 13.204 5.924 13.204 13.204s-5.924 13.204-13.204 13.204H240.719c-7.281 0-13.204-5.924-13.204-13.204S233.438 15 240.719 15h28.592c4.143 0 7.5-3.357 7.5-7.5a7.5 7.5 0 0 0-7.5-7.5h-28.592c-15.552 0-28.204 12.652-28.204 28.204s12.652 28.204 28.204 28.204h59.21a252.27 252.27 0 0 0 5.527 41.057l-149.582 65.921c-2.717-12.733-14.049-22.313-27.581-22.313-15.552 0-28.204 12.652-28.204 28.204v33.549h-7.061c-17.256 0-31.575 12.793-33.986 29.392h-8.324c-15.552 0-28.204 12.652-28.204 28.204s12.652 28.204 28.204 28.204h8.119c1.628 17.211 16.157 30.723 33.787 30.723h7.464v33.086c0 15.552 12.652 28.204 28.204 28.204 14.823 0 27.003-11.496 28.113-26.039h14.398a7.495 7.495 0 0 0 7.47 6.902 7.495 7.495 0 0 0 7.47-6.902h14.337c.305 3.862 3.53 6.902 7.47 6.902s7.164-3.04 7.47-6.902h14.338a7.495 7.495 0 0 0 7.47 6.902 7.495 7.495 0 0 0 7.47-6.902h14.399c1.11 14.543 13.29 26.039 28.113 26.039 13.027 0 24.015-8.88 27.24-20.903a114.103 114.103 0 0 0 38.734 14.998v40.008c-4.185 4.922-6.719 11.29-6.719 18.242v50.811c0 15.552 12.652 28.204 28.204 28.204s28.204-12.652 28.204-28.204v-50.811c0-6.952-2.534-13.321-6.72-18.243v-40.007c82.143-15.5 120.884-111.533 72.586-179.719zM58.681 273.626h-7.962c-7.281 0-13.204-5.923-13.204-13.204s5.923-13.204 13.204-13.204h7.962v26.408zm41.41 30.723h-7.465c-10.446 0-18.944-8.498-18.944-18.943v-48.23c0-10.669 8.68-19.349 19.348-19.349h7.061v86.522zm41.407 48.085c0 7.281-5.923 13.204-13.204 13.204s-13.204-5.923-13.204-13.204V169.277c0-7.281 5.923-13.204 13.204-13.204s13.204 5.923 13.204 13.204v183.157zm29.277-12.834h-14.277V182.113h14.277V339.6zm129.24-166.145c-10.817 9.116-19.708 19.941-26.408 31.929v-36.106c0-7.281 5.923-13.204 13.204-13.204s13.204 5.923 13.204 13.204v4.177zm98.604-117.047-14.913 6.572a154.714 154.714 0 0 1-.623-6.572h15.536zm3.094 93.202c-20.166-4.904-41.164-4.201-60.282 1.486-8.526-15.147-14.381-30.542-18.39-44.988l49.126-21.65c5.278 23.358 14.898 45.73 29.546 65.152zm-33.679-93.201c.217 3.373.622 7.756 1.348 12.884l-49.917 21.999a237.34 237.34 0 0 1-4.517-34.883h53.086zM200.052 339.6h-14.277V182.113h14.277V339.6zm29.277 0h-14.277V182.113h14.277V339.6zm29.277 0H244.33V182.113h14.276V339.6zm.092-172.487h-14.369v-.271a7.5 7.5 0 0 0-7.5-7.5 7.5 7.5 0 0 0-7.5 7.5v.271h-14.277v-.271a7.5 7.5 0 0 0-7.5-7.5 7.5 7.5 0 0 0-7.5 7.5v.271h-14.277c-.001-.062.006.074-.012-.506l123.428-54.395c4.09 14.228 9.874 29.275 18.028 44.174a115.078 115.078 0 0 0-12.876 6.794c-2.795-12.629-14.075-22.107-27.533-22.107-14.822 0-27.002 11.497-28.112 26.04zm41.317 185.322c0 7.281-5.923 13.204-13.204 13.204s-13.204-5.923-13.204-13.204v-34.738c6.7 11.988 15.591 22.813 26.408 31.927v2.811zM374.271 497c-7.281 0-13.204-5.924-13.204-13.204v-50.811c0-11.304 13.567-17.563 22.115-9.712 2.866 2.645 4.293 6.159 4.293 9.712v50.811c0 7.28-5.923 13.204-13.204 13.204zm12.781-218.854c-3.45 2.662-5.684 6.682-6.188 11.013-.167 1.434-.109-5.781-.109 116.379-4.169-.988-8.751-1.006-12.97 0 0-123.118.128-114.538-.233-116.822-.663-4.193-2.853-8.056-6.18-10.661-14.678-11.492-8.235-35.237 10.44-37.35 20.899-2.347 32.211 24.344 15.24 37.441z" fill="#0095CF" opacity="1" data-original="#000000"></path></g></svg>