<svg xmlns="http://www.w3.org/2000/svg" version="1.1" xmlns:xlink="http://www.w3.org/1999/xlink" width="512" height="512" x="0" y="0" viewBox="0 0 64 64" style="enable-background:new 0 0 512 512" xml:space="preserve" class=""><g><path d="M13.36 43a20.83 20.83 0 0 0 20.75 3.77 1 1 0 0 0 .64-.72 1 1 0 0 0-.27-.93l-6.9-6.89a1 1 0 0 0-1.13-.23A18.78 18.78 0 0 1 18 40a19 19 0 0 1-2.87-.25 18.82 18.82 0 0 1 4.74-10.46l3.79 3.78a1 1 0 0 0 .7.29 1 1 0 0 0 .71-.29 6.94 6.94 0 0 0 .4-9.41 1 1 0 1 0-1.53 1.28 5 5 0 0 1 .35 5.94l-3-3c.32-.29.64-.56 1-.83A1 1 0 1 0 21 25.48a22 22 0 0 0-1.83 1.64h-.05v.06a20.84 20.84 0 0 0-6 12.72A19 19 0 0 1 24.53 8.16l.47-.05a14.93 14.93 0 0 0 5.32 11.34 1 1 0 0 0 .65.24 1 1 0 0 0 .76-.36 1 1 0 0 0-.12-1.41A12.94 12.94 0 0 1 27 8a19 19 0 0 1 16.13 9l-6.56 3.45A5.43 5.43 0 0 1 34 21a20.92 20.92 0 0 0-5.79.81 1 1 0 0 0 .55 1.92A19.29 19.29 0 0 1 34 23a7.4 7.4 0 0 0 3.47-.82L45 18.24a1 1 0 0 0 .41-1.36A20.92 20.92 0 0 0 26.12 6c-.52 0-1.05.06-1.58.12l-2.3-3.5a1 1 0 0 0-1-.45A21 21 0 0 0 8.83 37.49 21 21 0 0 0 13.36 43Zm13.33-2.9 5.23 5.24a19 19 0 0 1-16.83-3.56 20.27 20.27 0 0 0 11.6-1.68ZM5.15 20.57A19.13 19.13 0 0 1 20.91 4.24l1.47 2.27A21.16 21.16 0 0 0 6.17 24.32a20.72 20.72 0 0 0 0 5.16 19 19 0 0 1-1.02-8.91Z" fill="#0095CF" opacity="1" data-original="#000000"></path><circle cx="33" cy="12" r="1" fill="#0095CF" opacity="1" data-original="#000000"></circle><path d="M51 18.86V34a6 6 0 0 1-12 0v-3l2.4 1.8a1 1 0 1 0 1.2-1.6l-4-3a1 1 0 0 0-1.05-.09A1 1 0 0 0 37 29v5a8 8 0 0 0 16 0V18.86a4 4 0 0 0 0-7.72V3a1 1 0 0 0-2 0v8.14a4 4 0 0 0 0 7.72ZM52 13a2 2 0 1 1-2 2 2 2 0 0 1 2-2ZM20.23 13.32a1 1 0 0 0-1.15.81 5 5 0 0 0 4.05 5.79h.18a1 1 0 0 0 .17-2A3 3 0 0 1 21 14.48a1 1 0 0 0-.77-1.16ZM18.5 22a1 1 0 0 0-1-1 2.5 2.5 0 0 1-2.5-2.5 1 1 0 0 0-2 0 4.51 4.51 0 0 0 4.5 4.5 1 1 0 0 0 1-1ZM12 25.5a1 1 0 0 0-2 0 4.51 4.51 0 0 0 4.5 4.5 1 1 0 0 0 0-2 2.5 2.5 0 0 1-2.5-2.5ZM5.5 53.54a4.55 4.55 0 0 0 3.21-1.33 2.53 2.53 0 0 1 3.58 0 4.54 4.54 0 0 0 6.42 0 2.53 2.53 0 0 1 3.58 0 4.54 4.54 0 0 0 6.42 0 2.53 2.53 0 0 1 3.58 0 4.54 4.54 0 0 0 6.42 0 2.53 2.53 0 0 1 3.58 0 4.54 4.54 0 0 0 6.42 0 2.53 2.53 0 0 1 3.58 0 4.54 4.54 0 0 0 6.42 0 2.5 2.5 0 0 1 2.15-.71 1 1 0 1 0 .28-2 4.52 4.52 0 0 0-3.85 1.27 2.53 2.53 0 0 1-3.58 0 4.54 4.54 0 0 0-6.42 0 2.53 2.53 0 0 1-3.58 0 4.54 4.54 0 0 0-6.42 0 2.53 2.53 0 0 1-3.58 0 4.54 4.54 0 0 0-6.42 0 2.53 2.53 0 0 1-3.58 0 4.54 4.54 0 0 0-6.42 0 2.53 2.53 0 0 1-3.58 0 4.54 4.54 0 0 0-6.42 0 2.53 2.53 0 0 1-3.58 0 1 1 0 0 0-1.42 1.42 4.55 4.55 0 0 0 3.21 1.35ZM61.71 55.79a4.54 4.54 0 0 0-6.42 0 2.53 2.53 0 0 1-3.58 0 4.54 4.54 0 0 0-6.42 0 2.53 2.53 0 0 1-3.58 0 4.54 4.54 0 0 0-6.42 0 2.53 2.53 0 0 1-3.58 0 4.54 4.54 0 0 0-6.42 0 2.53 2.53 0 0 1-3.58 0 4.54 4.54 0 0 0-6.42 0 2.53 2.53 0 0 1-3.58 0 4.54 4.54 0 0 0-6.42 0 2.53 2.53 0 0 1-2.15.71 1 1 0 0 0-.28 2 4.48 4.48 0 0 0 3.85-1.27 2.53 2.53 0 0 1 3.58 0 4.54 4.54 0 0 0 6.42 0 2.53 2.53 0 0 1 3.58 0 4.54 4.54 0 0 0 6.42 0 2.53 2.53 0 0 1 3.58 0 4.54 4.54 0 0 0 6.42 0 2.53 2.53 0 0 1 3.58 0 4.54 4.54 0 0 0 6.42 0 2.53 2.53 0 0 1 3.58 0 4.54 4.54 0 0 0 6.42 0 2.53 2.53 0 0 1 3.58 0 1 1 0 0 0 1.42-1.42Z" fill="#0095CF" opacity="1" data-original="#000000"></path></g></svg>