<svg xmlns="http://www.w3.org/2000/svg" version="1.1" xmlns:xlink="http://www.w3.org/1999/xlink" width="512" height="512" x="0" y="0" viewBox="0 0 512 512.001" style="enable-background:new 0 0 512 512" xml:space="preserve"><g><path d="M202.52 120.809a7.511 7.511 0 0 0-10.497 1.668c-.402.558-1.28 1.152-2.535 1.152-1.254 0-2.133-.594-2.539-1.152a7.511 7.511 0 0 0-10.496-1.668 7.515 7.515 0 0 0-1.668 10.496c3.344 4.605 8.84 7.355 14.703 7.355s11.36-2.75 14.703-7.355a7.512 7.512 0 0 0-1.671-10.496zm0 0" fill="#0095CF" opacity="1" data-original="#000000"></path><path d="M510.445 316.844c-5.027-36.844-32.207-67.778-39.59-75.59-5.21-38.469-19.23-64.156-31.398-79.867-9.656-12.465-19.371-20.442-26.066-25.051a338.164 338.164 0 0 0 4.793-3.465c11.48-8.457 13.937-24.684 5.48-36.164-8.36-11.344-24.809-13.852-36.164-5.48-36.664 27.011-97.758 52.011-139.21 58.203 7.503-11.856 11.323-25.813 10.75-40.188-.716-17.812-8.212-34.539-21.11-47.097-12.89-12.56-29.813-19.614-47.637-19.872-18.84-.28-36.633 6.864-50.05 20.09-13.427 13.227-20.817 30.895-20.817 49.739 0 14.289 4.43 28.128 12.437 39.707a67.093 67.093 0 0 0-9.761 2.382c-18.508 6.063-30.348 19.348-34.243 38.426-1.66 8.145-2.754 19.281-3.433 31.922-7.074-40.523-14.75-75.574-21.625-103.672C45.1 48.567 28.684 5.195 28.523 4.766 26.414-.766 18.715-1.72 15.328 3.152c-.941 1.356-22.95 33.485-12.535 61.106 4.809 12.762 15.434 22.152 31.637 28-8.528 15.117-23.239 47.082-12.758 72.887 5.785 14.246 18.055 24.27 36.535 29.878-9.945 18.77-29.871 63.649-17.496 102.727 4.07 12.86 11.246 23.855 21.402 32.926-7.593 4.52-12.695 12.804-12.695 22.262 0 14.277 11.613 25.89 25.89 25.89 4.829 0 9.352-1.332 13.223-3.644a1536.196 1536.196 0 0 1 2.942 44.058 7.517 7.517 0 0 0 15.011-.789 1561.141 1561.141 0 0 0-2.832-42.707c5.09 1.824 10.688 1.863 15.774 0v48.14a7.516 7.516 0 0 0 15.031 0V317.263h109.606V467.64h-34.301V360.92c0-11.304-9.2-20.5-20.5-20.5-11.305 0-20.5 9.196-20.5 20.5v106.716H134.46v-13.633a7.517 7.517 0 0 0-7.52-7.516 7.516 7.516 0 0 0-7.515 7.516v25.812c0 17.746 14.437 32.184 32.183 32.184s32.184-14.438 32.184-32.184V360.922c0-3.012 2.453-5.465 5.469-5.465s5.468 2.45 5.468 5.465v118.894c0 17.747 14.438 32.184 32.184 32.184 17.746 0 32.184-14.438 32.184-32.184V271.008a7.516 7.516 0 0 0-15.032 0v31.222H134.457v-86.187a7.516 7.516 0 0 0-15.031 0v40.402H98.55c.187-24.254 1.27-47.254 4.035-60.82 5.504-26.977 31.16-29.754 40.73-29.836 5.196 7.356 18.95 21.95 46.293 21.95 27.23 0 40.59-14.462 45.672-21.923 15.996-.703 36.02-4.964 57.11-11.644l6.597 22.512c-17.851 6.09-34.613 10.71-49.164 14.168-3.515.84-5.851 4.066-5.762 7.554v42.38a7.516 7.516 0 0 0 15.031 0v-36.72c28.344-7.054 63.774-18.23 99.481-35.55-10.207 15.156-20.656 37.234-25.527 67.789-8.668 6.086-32.016 26.011-37.23 66.863-.665 5.207 4.328 9.57 9.402 8.21l27.41-7.339a186.401 186.401 0 0 0 5.707 24.871 7.522 7.522 0 0 0 9.375 5.008 7.516 7.516 0 0 0 5.008-9.375c-4.957-16.332-7.473-33.555-7.473-51.203 0-21.215 2.746-40.86 8.067-58.426 14.386 9.016 31.18 13.91 48.273 13.91s33.883-4.894 48.273-13.91c5.32 17.566 8.063 37.211 8.063 58.426 0 62.976-31.36 103.746-50.055 122.441-3.5 3.5-2.61 9.57 1.735 11.926 10.8 5.848 23.695 15.934 31.293 32.7-10.387-5.548-24.364-10.973-39.31-10.973-14.944 0-28.92 5.425-39.308 10.972 7.598-16.765 20.493-26.847 31.293-32.699 4.344-2.352 5.235-8.422 1.735-11.922-8.82-8.824-21.52-23.707-31.914-44.484a7.516 7.516 0 1 0-13.442 6.726 189.234 189.234 0 0 0 28.219 41.508c-13.961 9.582-31.531 27.258-36.223 57.153-1.054 6.714 7.07 11.289 12.274 6.91.226-.192 23.023-19.13 47.367-19.13 24.348 0 47.144 18.938 47.363 19.122 5.207 4.41 13.332-.192 12.278-6.903-4.688-29.89-22.258-47.57-36.215-57.152 10.23-11.383 22.293-27.68 31.758-48.883 22.136-6.234 49.414-25.82 50.628-26.703a7.508 7.508 0 0 0 3.047-7.105zM16.871 58.992c-4.078-10.765-.793-23.406 3.192-32.902 3.785 11.297 9.214 28.36 15.437 50.414-9.57-4.223-15.816-10.086-18.629-17.512zm18.734 100.52c-6.77-16.625 1.079-38.36 8.098-52.586 5.504 21.37 11.293 45.86 16.906 73.082-12.812-4.293-21.203-11.164-25.004-20.496zm19.446 133.742c-8.95-28.203 2.586-61.633 11.754-81.57A1622.226 1622.226 0 0 1 84.02 328.078c-14.645-8.652-24.364-20.328-28.97-34.824zm20.258 70.543c-5.989 0-10.856-4.871-10.856-10.856 0-5.988 4.867-10.859 10.856-10.859 5.988 0 10.859 4.871 10.859 10.86 0 5.988-4.871 10.855-10.86 10.855zm76.3 133.172c-8.484 0-15.527-6.2-16.894-14.297h33.789c-1.367 8.101-8.414 14.297-16.895 14.297zm75.301 0c-8.48 0-15.527-6.2-16.894-14.297h33.789c-1.364 8.101-8.41 14.297-16.895 14.297zM119.426 271.477v80.878c0 6.887-3.828 9.551-7.41 9.75-4.606.247-9.633-3.25-10.559-11.64-.887-8.05-2.695-43.059-2.914-78.988zm106.8-118.938a7.462 7.462 0 0 0-2.085 2.703c-.34.715-8.641 17.465-34.532 17.465-26.039 0-34.949-16.918-35.285-17.574a7.61 7.61 0 0 0-1.73-2.309c-11.528-10.383-18.137-25.226-18.137-40.722 0-14.786 5.8-28.649 16.336-39.032 10.531-10.379 24.46-15.98 39.281-15.765 13.969.203 27.239 5.746 37.367 15.61 10.13 9.862 16.016 22.98 16.575 36.929.652 16.226-5.832 31.758-17.79 42.695zm86.583 141.246c4-16.351 11.328-27.738 17.836-35.152a251.455 251.455 0 0 0-.426 14.707c0 5.242.21 10.453.62 15.617zm.359-122.176-6.523-22.261c32.359-11.649 65.668-28.262 89.77-46.02a10.746 10.746 0 0 1 8.046-1.988 10.743 10.743 0 0 1 7.098 4.285c3.543 4.809 2.515 11.602-2.293 15.145-30.723 22.636-64.606 39.03-96.098 50.84zm88.418 42.184c-15.629 0-30.406-4.637-43.078-13.438 4.437-10.683 9.96-20.41 16.531-29.035 10.629-13.949 21.379-21.57 26.543-24.734 5.184 3.172 15.926 10.793 26.547 24.734 6.574 8.621 12.094 18.352 16.535 29.035-12.672 8.801-27.45 13.438-43.078 13.438zm62.3 118.262c5.5-17.07 9.071-36.633 9.071-58.715 0-1.98-.027-3.934-.074-5.867 8.527 11.832 18.336 28.613 21.922 46.918-6.098 4.125-18.649 12.203-30.918 17.664zm0 0" fill="#0095CF" opacity="1" data-original="#000000"></path><path d="M413.195 184.316c0 6.414-5.195 11.614-11.61 11.614-6.413 0-11.608-5.2-11.608-11.614 0-6.41 5.195-11.609 11.609-11.609s11.61 5.2 11.61 11.61zM176.41 107.969c0 5.715-4.633 10.347-10.344 10.347-5.714 0-10.347-4.632-10.347-10.347 0-5.711 4.633-10.344 10.347-10.344 5.711 0 10.344 4.633 10.344 10.344zM223.254 107.969c0 5.715-4.629 10.347-10.344 10.347s-10.344-4.632-10.344-10.347c0-5.711 4.63-10.344 10.344-10.344s10.344 4.633 10.344 10.344zm0 0" fill="#0095CF" opacity="1" data-original="#000000"></path></g></svg>