<svg xmlns="http://www.w3.org/2000/svg" version="1.1" xmlns:xlink="http://www.w3.org/1999/xlink" width="512" height="512" x="0" y="0" viewBox="0 0 682.667 682.667" style="enable-background:new 0 0 512 512" xml:space="preserve"><g><defs><clipPath id="a" clipPathUnits="userSpaceOnUse"><path d="M0 512h512V0H0Z" fill="#0095CF" opacity="1" data-original="#000000"></path></clipPath></defs><g clip-path="url(#a)" transform="matrix(1.33333 0 0 -1.33333 0 682.667)"><path d="M0 0c38.76.75 39.65 17.97 80.16 17.97 41.41 0 41.41-18 82.83-18s41.42 18 82.84 18" style="stroke-width:15;stroke-linecap:round;stroke-linejoin:round;stroke-miterlimit:10;stroke-dasharray:none;stroke-opacity:1" transform="translate(258.67 97.53)" fill="none" stroke="#0095CF" stroke-width="15" stroke-linecap="round" stroke-linejoin="round" stroke-miterlimit="10" stroke-dasharray="none" stroke-opacity="" data-original="#000000" opacity="1"></path><path d="M0 0c14.38-5.32 23.89-12.74 50.49-12.74 41.42 0 41.42 18 82.84 18 41.41 0 41.41-18 82.83-18s41.42 18 82.84 18" style="stroke-width:15;stroke-linecap:round;stroke-linejoin:round;stroke-miterlimit:10;stroke-dasharray:none;stroke-opacity:1" transform="translate(205.5 50.24)" fill="none" stroke="#0095CF" stroke-width="15" stroke-linecap="round" stroke-linejoin="round" stroke-miterlimit="10" stroke-dasharray="none" stroke-opacity="" data-original="#000000" opacity="1"></path><path d="M0 0a284.429 284.429 0 0 0 40.207 25.845c39.539 20.97 77.92 29.51 108.92 32.54 8.25.81 10.84-10.86 3-13.58-43.981-15.25-101.631-43.37-154.021-95.85-37.03-37.11-60.689-75.63-75.71-106.22" style="stroke-width:15;stroke-linecap:round;stroke-linejoin:round;stroke-miterlimit:10;stroke-dasharray:none;stroke-opacity:1" transform="translate(254.773 446.075)" fill="none" stroke="#0095CF" stroke-width="15" stroke-linecap="round" stroke-linejoin="round" stroke-miterlimit="10" stroke-dasharray="none" stroke-opacity="" data-original="#000000" opacity="1"></path><path d="M0 0c6.738 21.072 27.919 78.485 78.976 128.545" style="stroke-width:15;stroke-linecap:round;stroke-linejoin:round;stroke-miterlimit:10;stroke-dasharray:none;stroke-opacity:1" transform="translate(149.67 294.81)" fill="none" stroke="#0095CF" stroke-width="15" stroke-linecap="round" stroke-linejoin="round" stroke-miterlimit="10" stroke-dasharray="none" stroke-opacity="" data-original="#000000" opacity="1"></path><path d="M0 0v167a7 7 0 0 1-7 7h-181c-5.522 0-10-4.477-10-10V0" style="stroke-width:15;stroke-linecap:round;stroke-linejoin:round;stroke-miterlimit:10;stroke-dasharray:none;stroke-opacity:1" transform="translate(205.5 7.5)" fill="none" stroke="#0095CF" stroke-width="15" stroke-linecap="round" stroke-linejoin="round" stroke-miterlimit="10" stroke-dasharray="none" stroke-opacity="" data-original="#000000" opacity="1"></path><path d="M0 0h-89.97c-23.349 0-42.87 17.76-45.059 41l-9.351 99.06a50.004 50.004 0 0 0 9.37 34.14l8.24 11.31" style="stroke-width:15;stroke-linecap:round;stroke-linejoin:round;stroke-miterlimit:10;stroke-dasharray:none;stroke-opacity:1" transform="translate(179.51 181.5)" fill="none" stroke="#0095CF" stroke-width="15" stroke-linecap="round" stroke-linejoin="round" stroke-miterlimit="10" stroke-dasharray="none" stroke-opacity="" data-original="#000000" opacity="1"></path><path d="m0 0-52.6 17.31" style="stroke-width:15;stroke-linecap:round;stroke-linejoin:round;stroke-miterlimit:10;stroke-dasharray:none;stroke-opacity:1" transform="translate(179.51 229.39)" fill="none" stroke="#0095CF" stroke-width="15" stroke-linecap="round" stroke-linejoin="round" stroke-miterlimit="10" stroke-dasharray="none" stroke-opacity="" data-original="#000000" opacity="1"></path><path d="m0 0-57.341-27.06" style="stroke-width:15;stroke-linecap:round;stroke-linejoin:round;stroke-miterlimit:10;stroke-dasharray:none;stroke-opacity:1" transform="translate(105.69 249.72)" fill="none" stroke="#0095CF" stroke-width="15" stroke-linecap="round" stroke-linejoin="round" stroke-miterlimit="10" stroke-dasharray="none" stroke-opacity="" data-original="#000000" opacity="1"></path><path d="M0 0h44.851c8.29 0 15 6.72 15 15 0 4.15-1.68 7.89-4.391 10.61A14.972 14.972 0 0 1 44.851 30H4.671M0 0v-41.7c0-13.95-11.31-25.26-25.25-25.26H-39.5c-21.81 0-39.5 17.69-39.5 39.5V0" style="stroke-width:15;stroke-linecap:round;stroke-linejoin:round;stroke-miterlimit:10;stroke-dasharray:none;stroke-opacity:1" transform="translate(108.56 430.45)" fill="none" stroke="#0095CF" stroke-width="15" stroke-linecap="round" stroke-linejoin="round" stroke-miterlimit="10" stroke-dasharray="none" stroke-opacity="" data-original="#000000" opacity="1"></path><path d="M0 0v0c-27.511 0-49.813-22.303-49.813-49.814a6.936 6.936 0 0 1 6.936-6.936h92.69v6.936C49.813-22.303 27.512 0 0 0Z" style="stroke-width:15;stroke-linecap:round;stroke-linejoin:round;stroke-miterlimit:10;stroke-dasharray:none;stroke-opacity:1" transform="translate(69.061 487.202)" fill="none" stroke="#0095CF" stroke-width="15" stroke-linecap="round" stroke-linejoin="round" stroke-miterlimit="10" stroke-dasharray="none" stroke-opacity="" data-original="#000000" opacity="1"></path><path d="M0 0v-27.786c0-1.651.87-3.179 2.289-4.022L9.688-36.2c7.79-4.626 10.685-14.484 6.633-22.588-4.179-8.359-14.249-11.88-22.727-7.948l-22.173 10.284a12.014 12.014 0 0 0-6.96 10.899" style="stroke-width:15;stroke-linecap:round;stroke-linejoin:round;stroke-miterlimit:10;stroke-dasharray:none;stroke-opacity:1" transform="translate(241.04 144.406)" fill="none" stroke="#0095CF" stroke-width="15" stroke-linecap="round" stroke-linejoin="round" stroke-miterlimit="10" stroke-dasharray="none" stroke-opacity="" data-original="#000000" opacity="1"></path><path d="M0 0a7 7 0 0 1-7 7h-18.989v47.889l45.285-15.966a24.336 24.336 0 0 0 16.243-22.951V4.84" style="stroke-width:15;stroke-linecap:round;stroke-linejoin:round;stroke-miterlimit:10;stroke-dasharray:none;stroke-opacity:1" transform="translate(205.5 174.5)" fill="none" stroke="#0095CF" stroke-width="15" stroke-linecap="round" stroke-linejoin="round" stroke-miterlimit="10" stroke-dasharray="none" stroke-opacity="" data-original="#000000" opacity="1"></path><path d="M0 0c-19.61-38.54-20.22-66.91-13.12-88.03 7.86-23.41 25.94-30.68 33.42-57.29 3.11-11.08 3.54-21.88 2.51-31.81" style="stroke-width:15;stroke-linecap:round;stroke-linejoin:round;stroke-miterlimit:10;stroke-dasharray:none;stroke-opacity:1" transform="translate(409.91 497.67)" fill="none" stroke="#0095CF" stroke-width="15" stroke-linecap="round" stroke-linejoin="round" stroke-miterlimit="10" stroke-dasharray="none" stroke-opacity="" data-original="#000000" opacity="1"></path><path d="M0 0v-15.063c0-4.079-2.248-7.826-5.848-9.746l-22.628-12.07" style="stroke-width:15;stroke-linecap:round;stroke-linejoin:round;stroke-miterlimit:10;stroke-dasharray:none;stroke-opacity:1" transform="translate(59.17 430.452)" fill="none" stroke="#0095CF" stroke-width="15" stroke-linecap="round" stroke-linejoin="round" stroke-miterlimit="10" stroke-dasharray="none" stroke-opacity="" data-original="#000000" opacity="1"></path><path d="M0 0c-1.344 1.358-1.575 3.324-.513 4.861 6.781 9.812 11.177 25.543 11.177 43.282C10.664 77.887-1.692 102-16.935 102c-15.242 0-27.598-24.113-27.598-53.857 0-15.921 3.542-30.224 9.17-40.083.953-1.668.506-3.679-1.063-4.942C-41.61-1.058-46.848-7.219-48.68-15.804c-2.133-9.991 1.409-18.294 4.436-23.21 1.511-2.454 5.252-3.007 7.572-1.096l13.421 11.049c1.858 1.53 4.757 1.53 6.615 0L-3.215-40.11c2.32-1.911 6.061-1.358 7.572 1.096 3.028 4.916 6.569 13.219 4.436 23.21C7.372-9.147 3.904-3.947 0 0Z" style="stroke-width:15;stroke-linecap:round;stroke-linejoin:round;stroke-miterlimit:10;stroke-dasharray:none;stroke-opacity:1" transform="translate(449.333 218.552)" fill="none" stroke="#0095CF" stroke-width="15" stroke-linecap="round" stroke-linejoin="round" stroke-miterlimit="10" stroke-dasharray="none" stroke-opacity="" data-original="#000000" opacity="1"></path><path d="M0 0a7.5 7.5 0 1 0-15 0A7.5 7.5 0 0 0 0 0" style="fill-opacity:1;fill-rule:nonzero;stroke:none" transform="translate(439.478 289.902)" fill="#0095CF" data-original="#000000" opacity="1"></path><path d="m0 0 41.665-53.728a5 5 0 0 1 5.498-.845l26.831 12.546c9.467 4.427 20.555-1.336 22.373-11.627a15.886 15.886 0 0 0-8.701-17.054L52.013-88.03a30.934 30.934 0 0 0-35.467 6.023l-36.511 49.276" style="stroke-width:15;stroke-linecap:round;stroke-linejoin:round;stroke-miterlimit:10;stroke-dasharray:none;stroke-opacity:1" transform="translate(82.677 337.304)" fill="none" stroke="#0095CF" stroke-width="15" stroke-linecap="round" stroke-linejoin="round" stroke-miterlimit="10" stroke-dasharray="none" stroke-opacity="" data-original="#000000" opacity="1"></path><path d="m0 0 3.793-6.993a57.306 57.306 0 0 0 6.935-27.326v-17.416" style="stroke-width:15;stroke-linecap:round;stroke-linejoin:round;stroke-miterlimit:10;stroke-dasharray:none;stroke-opacity:1" transform="translate(90.868 364.643)" fill="none" stroke="#0095CF" stroke-width="15" stroke-linecap="round" stroke-linejoin="round" stroke-miterlimit="10" stroke-dasharray="none" stroke-opacity="" data-original="#000000" opacity="1"></path></g></g></svg>