<svg xmlns="http://www.w3.org/2000/svg" version="1.1" xmlns:xlink="http://www.w3.org/1999/xlink" width="512" height="512" x="0" y="0" viewBox="0 0 682.667 682.667" style="enable-background:new 0 0 512 512" xml:space="preserve" class=""><g><defs><clipPath id="a" clipPathUnits="userSpaceOnUse"><path d="M0 512h512V0H0Z" fill="#0095CF" opacity="1" data-original="#000000"></path></clipPath></defs><g clip-path="url(#a)" transform="matrix(1.33333 0 0 -1.33333 0 682.667)"><path d="M0 0c12.745-1.375 21.981-12.792 20.606-25.556C19.259-38.292 7.805-47.521-4.941-46.147-17.687-44.8-26.923-33.355-25.575-20.619-24.2-7.854-12.773 1.347 0 0Z" style="stroke-width:15.118;stroke-linecap:round;stroke-linejoin:round;stroke-miterlimit:10;stroke-dasharray:none;stroke-opacity:1" transform="translate(190.512 94.874)" fill="none" stroke="#0095CF" stroke-width="15.118" stroke-linecap="round" stroke-linejoin="round" stroke-miterlimit="10" stroke-dasharray="none" stroke-opacity="" data-original="#000000" class="" opacity="1"></path><path d="m0 0 50.337-56.583" style="stroke-width:15.118;stroke-linecap:round;stroke-linejoin:round;stroke-miterlimit:10;stroke-dasharray:none;stroke-opacity:1" transform="translate(120.242 143.686)" fill="none" stroke="#0095CF" stroke-width="15.118" stroke-linecap="round" stroke-linejoin="round" stroke-miterlimit="10" stroke-dasharray="none" stroke-opacity="" data-original="#000000" class="" opacity="1"></path><path d="M0 0c.814.813 1.656 1.627 2.498 2.441 57.496 55.797 131.218 99.195 209.854 116.448 27.231 6.368 30.825-28.109 15.047-33.187C88.04 55.096-49.747-65.476-79.057-206.245m-44.777-36.02c8.001 79.109 45.423 154.796 99.774 216.793" style="stroke-width:15.118;stroke-linecap:round;stroke-linejoin:round;stroke-miterlimit:10;stroke-dasharray:none;stroke-opacity:1" transform="translate(171.815 384.83)" fill="none" stroke="#0095CF" stroke-width="15.118" stroke-linecap="round" stroke-linejoin="round" stroke-miterlimit="10" stroke-dasharray="none" stroke-opacity="" data-original="#000000" class="" opacity="1"></path><path d="M0 0c24.424-2.609 42.083-24.49 39.472-48.868-2.611-24.378-24.509-42.024-48.905-39.443-24.424 2.609-42.083 24.491-39.472 48.896C-46.294-15.037-24.396 2.609 0 0Z" style="stroke-width:15.118;stroke-linecap:round;stroke-linejoin:round;stroke-miterlimit:10;stroke-dasharray:none;stroke-opacity:1" transform="translate(124.959 187.842)" fill="none" stroke="#0095CF" stroke-width="15.118" stroke-linecap="round" stroke-linejoin="round" stroke-miterlimit="10" stroke-dasharray="none" stroke-opacity="" data-original="#000000" class="" opacity="1"></path><path d="m0 0-7.523-70.441c-1.91-17.842-18.081-30.858-35.907-28.951-17.827 1.908-30.882 18.066-28.972 35.88l7.888 73.555c1.91 17.842 18.052 30.858 35.907 28.951a32.171 32.171 0 0 0 9.321-2.469" style="stroke-width:15.118;stroke-linecap:round;stroke-linejoin:round;stroke-miterlimit:10;stroke-dasharray:none;stroke-opacity:1" transform="translate(95.088 107.077)" fill="none" stroke="#0095CF" stroke-width="15.118" stroke-linecap="round" stroke-linejoin="round" stroke-miterlimit="10" stroke-dasharray="none" stroke-opacity="" data-original="#000000" class="" opacity="1"></path><path d="M0 0c37.647 40.284 54.155 102.674 56.935 165.877 72.627 6.593 170.044 63.961 208.786 118.552V85" style="stroke-width:15.118;stroke-linecap:round;stroke-linejoin:round;stroke-miterlimit:10;stroke-dasharray:none;stroke-opacity:1" transform="translate(133.493 186.102)" fill="none" stroke="#0095CF" stroke-width="15.118" stroke-linecap="round" stroke-linejoin="round" stroke-miterlimit="10" stroke-dasharray="none" stroke-opacity="" data-original="#000000" class="" opacity="1"></path><path d="m0 0-17.546-4.825C-30.067-8.248-35.093-9.229-35.064 6.508c.084 24.995 6.316 51.085 25.126 63.709" style="stroke-width:15.118;stroke-linecap:round;stroke-linejoin:round;stroke-miterlimit:10;stroke-dasharray:none;stroke-opacity:1" transform="translate(343.992 130.501)" fill="none" stroke="#0095CF" stroke-width="15.118" stroke-linecap="round" stroke-linejoin="round" stroke-miterlimit="10" stroke-dasharray="none" stroke-opacity="" data-original="#000000" class="" opacity="1"></path><path d="m0 0 17.547-4.825c12.52-3.423 17.546-4.404 17.49 11.333-.057 24.995-6.317 51.085-25.099 63.709" style="stroke-width:15.118;stroke-linecap:round;stroke-linejoin:round;stroke-miterlimit:10;stroke-dasharray:none;stroke-opacity:1" transform="translate(454.463 130.501)" fill="none" stroke="#0095CF" stroke-width="15.118" stroke-linecap="round" stroke-linejoin="round" stroke-miterlimit="10" stroke-dasharray="none" stroke-opacity="" data-original="#000000" class="" opacity="1"></path><path d="M0 0v.729" style="stroke-width:15.118;stroke-linecap:round;stroke-linejoin:round;stroke-miterlimit:10;stroke-dasharray:none;stroke-opacity:1" transform="translate(421.392 233.12)" fill="none" stroke="#0095CF" stroke-width="15.118" stroke-linecap="round" stroke-linejoin="round" stroke-miterlimit="10" stroke-dasharray="none" stroke-opacity="" data-original="#000000" class="" opacity="1"></path><path d="M0 0c.506.028 1.039.084 1.572.14.533.028 1.067.084 1.601.14 14.879 1.459 29.954 4.489 45.03 9.202m-130.348 0c15.216-5.05 31.387-8.22 48.12-9.566" style="stroke-width:15.118;stroke-linecap:round;stroke-linejoin:round;stroke-miterlimit:10;stroke-dasharray:none;stroke-opacity:1" transform="translate(416.198 191.236)" fill="none" stroke="#0095CF" stroke-width="15.118" stroke-linecap="round" stroke-linejoin="round" stroke-miterlimit="10" stroke-dasharray="none" stroke-opacity="" data-original="#000000" class="" opacity="1"></path><path d="m0 0-40.68.084h-12.801c-2.892 0-9.264 4.994-5.363 9.707l23.696 28.558c6.063 7.293 2.582 12.679-4.801 25.303-15.891 27.099-26.222 54.732-26.222 86.207 0 5.078.337 10.071 1.011 14.896C-59.686 204.759-32.594 235.14 0 235.14c36.552 0 66.198-38.18 66.198-85.281 0-31.475-10.359-59.108-26.22-86.207-7.413-12.624-10.866-18.01-4.801-25.303L58.871 9.791C62.745 5.106 56.4.084 53.509.084h-12.83z" style="stroke-width:15.118;stroke-linecap:round;stroke-linejoin:round;stroke-miterlimit:10;stroke-dasharray:none;stroke-opacity:1" transform="translate(399.214 35.963)" fill="none" stroke="#0095CF" stroke-width="15.118" stroke-linecap="round" stroke-linejoin="round" stroke-miterlimit="10" stroke-dasharray="none" stroke-opacity="" data-original="#000000" class="" opacity="1"></path></g></g></svg>