<svg xmlns="http://www.w3.org/2000/svg" version="1.1" xmlns:xlink="http://www.w3.org/1999/xlink" width="512" height="512" x="0" y="0" viewBox="0 0 512 512" style="enable-background:new 0 0 512 512" xml:space="preserve" class=""><g><path fill="#694435" d="M424 456h-32a8 8 0 0 1 0-16h24v-16a8 8 0 0 1 16 0v24a8 8 0 0 1-8 8z" opacity="1" data-original="#694435"></path><circle cx="296" cy="200" r="32" fill="#f0c6a4" opacity="1" data-original="#f0c6a4"></circle><circle cx="88" cy="200" r="32" fill="#f0c6a4" opacity="1" data-original="#f0c6a4"></circle><rect width="208" height="240" x="88" y="56" fill="#f7cca9" rx="104" opacity="1" data-original="#f7cca9"></rect><g fill="#452d23"><circle cx="232" cy="200" r="8" fill="#452d23" opacity="1" data-original="#452d23"></circle><circle cx="152" cy="200" r="8" fill="#452d23" opacity="1" data-original="#452d23"></circle><path d="M184 224a8 8 0 0 1-8-8v-16a8 8 0 0 1 16 0v16a8 8 0 0 1-8 8z" fill="#452d23" opacity="1" data-original="#452d23"></path></g><path fill="#f7b030" d="M56 296h272a32 32 0 0 1 32 32v160H24V328a32 32 0 0 1 32-32zM296 130.1c0 2.549-.084 5.078-.269 7.579A106.887 106.887 0 0 1 289.166 168H94.834a106.887 106.887 0 0 1-6.565-30.316c-.185-2.5-.269-5.03-.269-7.579C88 71.5 134.559 24 192 24s104 47.5 104 106.1z" opacity="1" data-original="#f7b030"></path><path fill="#bd620e" d="M328 152a15.979 15.979 0 0 1-16 16H72a16 16 0 1 1 0-32h240a16 16 0 0 1 16 16z" opacity="1" data-original="#bd620e"></path><path fill="#95573a" d="M268.18 279.17a32 32 0 0 0-45.98-41.762 32 32 0 0 0-60.394 0 32 32 0 0 0-45.986 41.762 32 32 0 0 0 28.68 55.681 48 48 0 0 0 95.01 0 32 32 0 0 0 28.67-55.681z" opacity="1" data-original="#95573a"></path><path fill="#452d23" d="M208 272h-32a8 8 0 0 1 0-16h32a8 8 0 0 1 0 16z" opacity="1" data-original="#452d23"></path><path fill="#2d85cc" d="M72 408h240v80H72z" opacity="1" data-original="#2d85cc"></path><path fill="#1261a0" d="M280 296h32v112h-32zM72 296h32v112H72zM240 456h-96a8 8 0 0 1 0-16h96a8 8 0 0 1 0 16z" opacity="1" data-original="#1261a0"></path><path fill="#dadcde" d="M368 488h-16V80.728C352 53.859 373.532 32 400 32s48 21.859 48 48.728V128h-16V80.728C432 62.682 417.645 48 400 48s-32 14.682-32 32.728z" opacity="1" data-original="#dadcde"></path><path fill="#5e3725" d="M352 408h24a16 16 0 0 1 16 16v48a16 16 0 0 1-16 16h-24v-80z" opacity="1" data-original="#5e3725"></path><rect width="80" height="32" x="152" y="72" fill="#bd620e" rx="16" opacity="1" data-original="#bd620e"></rect><path fill="#1261a0" d="M478 331.2c-11.05-12.37-26.726-14.878-35.013-5.6a18.255 18.255 0 0 0-2.987 4.613 18.255 18.255 0 0 0-2.982-4.612c-8.287-9.278-23.963-6.77-35.013 5.6s-13.289 29.92-5 39.2 23.963 6.77 35.013-5.6A40.534 40.534 0 0 0 440 351.367a40.534 40.534 0 0 0 7.984 13.432c11.05 12.37 26.725 14.878 35.013 5.6s6.048-26.828-4.997-39.199z" opacity="1" data-original="#1261a0"></path><path fill="#a3d4f7" d="M480 216c0 61.856-17.909 128-40 128s-40-66.144-40-128 17.909-96 40-96 40 34.144 40 96z" opacity="1" data-original="#a3d4f7"></path><path fill="#2d85cc" d="M479.67 201.86C476.15 219.02 459.72 232 440 232s-36.15-12.98-39.67-30.14c.03-.62.06-1.25.1-1.86 2.82-51.72 19.47-80 39.57-80s36.75 28.28 39.57 80c.04.61.07 1.24.1 1.86z" opacity="1" data-original="#2d85cc"></path><circle cx="448" cy="184" r="8" fill="#452d23" opacity="1" data-original="#452d23"></circle></g></svg>