<svg xmlns="http://www.w3.org/2000/svg" version="1.1" xmlns:xlink="http://www.w3.org/1999/xlink" width="512" height="512" x="0" y="0" viewBox="0 0 55 55" style="enable-background:new 0 0 512 512" xml:space="preserve" class=""><g><path fill="#19345d" d="M28.41 31.92c-6.602-1.242-8.494 4.064-1.172 3.524 1.067-.079 2.099-.26 3.16-.36-2.118.219-4.177.884-5.651 1.826-1.317.842-1.16 1.693.322 2.031 2.156.492 5.769-.532 9.215-.431 3.635.106 8.047 1.611 11.217.677 1.72-.507 1.603-1.48.268-2.253-.66-.382-1.468-.658-2.09-1.065 1.982.348 4.565.796 6.48-.036.893-.389 1.481-1.078 1.31-1.778-.152-.624-.859-1.162-1.655-1.568-2.417-1.235-7.363-1.042-9.462-.331.625-.242 1.948-.289 2.156-.864.092-.254-.108-.533-.418-.722-.844-.512-3.68-.948-6.141-.21-1.547.464-4.726 2.09-7.539 1.56z" opacity="1" data-original="#19345d"></path><path fill="#28b6f4" d="M50.154 35.482c-1.895.825-4.505.383-6.474.042.619.399 1.427.682 2.088 1.06.66.388 1.185.955.955 1.469-.168.367-.672.619-1.217.787-3.17.924-7.624-.569-11.217-.682-3.478-.097-7.038.922-9.224.43-1.415-.318-1.679-1.161-.314-2.025 1.469-.945 3.525-1.606 5.645-1.826-1.06.094-2.088.283-3.159.357-1.325.104-3.356.019-4.291-.808-.399-.357-.483-.819-.336-1.217.252-.724 1.175-1.291 2.287-1.532.822-.178 2.157-.233 3.516.031 2.814.538 6.026-1.119 7.533-1.553 2.447-.742 5.3-.31 6.139.21.671.403.616.974-.41 1.26 1.859-.336 5.05-.264 6.296-.011 1.137.23 3.224 1.108 3.494 2.235.179.692-.409 1.385-1.311 1.773z" opacity="1" data-original="#28b6f4"></path><path fill="#095da4" d="M50.154 35.482c-1.895.825-4.505.383-6.474.042.619.399 1.427.682 2.088 1.06.66.388 1.185.955.955 1.469-.168.367-.672.619-1.217.787-3.17.924-7.624-.569-11.217-.682-3.478-.097-7.038.922-9.224.43-1.415-.318-1.679-1.161-.314-2.025 1.469-.945 3.525-1.606 5.645-1.826-1.06.094-2.088.283-3.159.357-1.325.104-3.356.019-4.291-.808-.399-.357-.483-.819-.336-1.217.252-.724 1.175-1.291 2.287-1.532a6.437 6.437 0 0 1 1.207-.137c-.353.756-.041 1.603 1.532 1.847 2.183.315 4.397-.073 6.59.147.889.086 1.044.66.398 1.112-1.678 1.207-4.144.913-5.75 2.225 4.009 1.5 8.762-1.343 12.665.409.556.252 1.113.598 1.721.587.743 0 .904-.661.483-1.122-.478-.526-1.555-.569-2.603-2.151-.199-.315-.377-.682-.283-1.04.116-.419.588-.67 1.028-.67 1.196.028 2.847 1.763 4.88 2.15 1.332.242 2.948-.335 3.315-1.647.084-.283.095-.598.137-.892.62.378 1.123.83 1.248 1.354.179.692-.409 1.385-1.311 1.773z" opacity="1" data-original="#095da4"></path><path fill="#f58210" d="M13.597 33.706c.013.483.724.305.895-.213.06-.177.071-.715-.234-.637-.33.085-.667.577-.66.85zM14.08 32.26c.008.317.475.2.589-.141.038-.117.046-.47-.155-.419-.216.055-.439.377-.434.56z" opacity="1" data-original="#f58210"></path><path d="M35.42 31.41c-.641-1.48-1.773-6.053-1.82-6.246-.033-.127.161-.181.193-.048.011.047 1.176 4.75 1.811 6.214 1.165 2.686 3.936 1.382 3.318-1.096l-.671-1.963c-.043-.126.145-.189.19-.065l.672 1.971c.68 2.72-2.425 4.157-3.692 1.232z" fill="#000000" opacity="1" data-original="#000000"></path><path fill="#19345d" d="M38.957 29.67c-.006.026-.04.047-.073.067l-.923.296a.098.098 0 0 1-.135-.032c-.133-.11-.042-.061.358-1.766a.152.152 0 0 1 .113-.116c.054.013.134.032.149.092l.51 1.344c.02.033.008.087.001.114z" opacity="1" data-original="#19345d"></path><path d="M38.198 6.487c-.275 0-.483-.232-.56-.448-.079-.23-.058-.48-.042-.681a.1.1 0 0 1 .094-.091.095.095 0 0 1 .043-.019c.598-.103 1.036.308.984.754-.03.265-.261.482-.514.485h-.005zM37.79 5.44c-.014.175-.022.364.037.532.054.156.199.314.37.314h.003c.152-.002.298-.142.317-.308.037-.304-.277-.604-.727-.538z" fill="#000000" opacity="1" data-original="#000000"></path><path d="M13.552 32.7c-.127 0-.134-.187-.01-.2 1.298-.128 2.527-.958 3.13-2.113a4.071 4.071 0 0 0-.048-3.776.1.1 0 0 1 .092-.149c1.859.106 3.74-.9 4.675-2.513.937-1.612.881-3.745-.136-5.306-.047-.072.016-.169.09-.154 4.614.326 8.39-3.637 7.843-8.22-.009-.08.077-.138.145-.1 1.696.857 3.848.783 5.482-.188 1.634-.972 2.726-2.828 2.781-4.727.003-.136.204-.124.2.006-.057 1.966-1.188 3.887-2.88 4.893-1.637.976-3.779 1.077-5.51.273.43 4.545-3.25 8.473-7.88 8.274.957 1.605.979 3.73.04 5.35-.966 1.663-2.865 2.666-4.686 2.619.584 1.173.578 2.65-.03 3.811-.635 1.213-1.925 2.084-3.288 2.22h-.01z" fill="#000000" opacity="1" data-original="#000000"></path><path fill="#d0dcee" d="M37.733 5.362c-9.23 1.209-19.412 17.452-23.59 25.953l-2.646-.622c2.478-5.96 7.479-12.06 12.066-16.857.017-.029.045-.054.06-.073C27.42 9.753 31.9 5.271 37.44 5.046c.305-.015.364.15.292.316z" opacity="1" data-original="#d0dcee"></path><path fill="#a5c0dd" d="M11.497 30.693c2.478-5.96 7.479-12.06 12.066-16.857a21.377 21.377 0 0 0-4.318 8.47 91.984 91.984 0 0 0-5.103 9.009zM34.34 5.632c-2.174 2.625-4.803 2.585-8.713 6.07 2.44-2.454 5.193-4.905 8.712-6.07z" opacity="1" data-original="#a5c0dd"></path><path fill="#e9874a" d="M12.444 35.587c-.09.355-3.127 9.752-3.24 13.71.016.049-.01.227-.09.34-.13.23-.38.37-.67.3-1.34-.29-2.66-.66-3.96-1.11-.35-.13-.74-.28-.9-.63-.14-.25-.09-.59.05-.86.12-.28 3.59-9.5 6.11-13.03l2.7 1.28z" opacity="1" data-original="#e9874a"></path><path d="M12.404 35.717c-.013.044-.29.909-.31.95-.55-.16-1.13-.26-1.71-.29-.52-.03-1.06.08-1.53.3-.55.26-.85 1.21-1.1 1.74-.968 1.936-1.8 4.32-2.5 6.36-.27.78-.78 1.74-.59 2.58.18.83 1.04 1.49 1.77 1.81.84.36 1.76.44 2.66.47h.02c-.13.23-.38.37-.67.3-1.34-.29-2.66-.66-3.96-1.11-.35-.13-.74-.28-.9-.63-.14-.25-.09-.59.05-.86.12-.28 3.59-9.5 6.11-13.03l2.56 1.21c.04.07.08.13.1.2z" fill="#000000" opacity="1" data-original="#000000"></path><path fill="#ffca28" d="M14.459 31.909a7.201 7.201 0 0 0-1.52 3.95.472.472 0 0 1-.513.44c-.824-.042-1.896-.385-3.045-.852-.194-.076-.33-.275-.314-.468.02-.283.056-.563.106-.84a7.763 7.763 0 0 1 1.694-3.726.511.511 0 0 1 .464-.164c1.007.163 2.138.413 3.007.949a.47.47 0 0 1 .12.71z" opacity="1" data-original="#ffca28"></path><path fill="#ff9f1c" d="M14.459 31.909a7.201 7.201 0 0 0-1.52 3.95.472.472 0 0 1-.513.44c-.824-.042-1.896-.385-3.045-.852-.194-.076-.33-.275-.314-.468.02-.283.056-.563.106-.84.638.06 1.266.358 1.868.181.539-.161.9-.668 1.1-1.197.366-.886.43-1.825 1.367-2.332.306.117.591.26.83.407a.47.47 0 0 1 .12.71z" opacity="1" data-original="#ff9f1c"></path><path fill="#19345d" d="M18.683 36.904c-.8 1.405-2.35 2.193-3.887 1.832-2.238-.526-3.284-3.243-2.353-5.284-.007-.032.017-.072.038-.097.82-1.795 2.566-2.597 4.104-2.236 2.51.59 3.384 3.7 2.098 5.785z" opacity="1" data-original="#19345d"></path><path d="m18.687 36.89-.004.014c-1.627 2.857-5.567 2.442-6.423-.735.52.895.68 1.24.901 1.197.114-.034.174-.156.168-.264a.752.752 0 0 0-.104-.328 2.768 2.768 0 0 1 .053-2.292l.345-.177c1.24-.135 2.732.017 3.773.72.644.424 1.169 1.093 1.29 1.865z" fill="#000000" opacity="1" data-original="#000000"></path><path fill="#28b6f4" d="M15.675 38.609c-1.753-.412-2.808-2.313-2.356-4.239.568-2.418 3.202-3.58 4.973-2.32.788.52 1.309 1.4 1.438 2.401.331 2.5-1.808 4.686-4.055 4.158z" opacity="1" data-original="#28b6f4"></path><path fill="#095da4" d="M15.675 38.609c-2.499-.587-3.287-3.972-1.453-5.952.074.315-.723.999-.738 2.237-.075 1.906 1.603 3.188 3.185 3.099 1.198-.067 2.321-.91 2.71-2.047.156-.47.274-1.403.35-1.495.332 2.493-1.803 4.687-4.054 4.158z" opacity="1" data-original="#095da4"></path><path fill="#095da4" d="M18.299 36.541c-1.194.97-2.998.043-2.622-1.556.111-.474.453-.894.86-1.147.359-.222.731-.323 1.153-.321.014.003.032-.008.05-.019 1.939.38 1.57 2.354.559 3.043z" opacity="1" data-original="#095da4"></path><path d="M19.1 35.259c-.089.51-.404 1.011-.801 1.282-1.194.97-2.998.043-2.622-1.556.111-.474.453-.894.86-1.147.125-.077.26-.137.396-.196.019.111-.155.207-.236.294-.582.585-.66 1.416-.38 1.942.22.416.715.699 1.172.625.741-.145 1.114-.936 1.611-1.244zM33.61 23.77a.1.1 0 0 1-.097-.076c-.6-2.37-.191-5.03 1.094-7.112 1.475-2.393 4.056-4.105 4.78-6.845.385-1.454.051-2.958-.85-3.831-.096-.093.044-.236.138-.144.954.923 1.309 2.503.906 4.026-.742 2.805-3.329 4.509-4.804 6.898-1.257 2.039-1.656 4.64-1.07 6.96a.1.1 0 0 1-.097.124z" fill="#000000" opacity="1" data-original="#000000"></path><path fill="#d0dcee" d="M21.534 43.149c-1.84-.248-2.778-.173-3.129-.57-.599-.642.44-5.29.418-5.567-.003-.284-.091-.563-.287-.763-.306-.308-.755-.308-1.19-.4-.823-.142-.687-1.402.047-1.471.346.005.131.008 1.784.34.25.064.507.113.703.28.294.236.394.653.428 1.037.192 1.594-.115 2.417-.514 4.436a.737.737 0 0 0 .563.84c.275.072 1.357.255 1.622.14z" opacity="1" data-original="#d0dcee"></path><path fill="#a5c0dd" d="M21.534 43.149c-1.84-.248-2.778-.173-3.129-.57-.599-.642.44-5.29.418-5.567-.003-.284-.091-.563-.287-.763-.306-.308-.755-.308-1.19-.4-.823-.142-.687-1.402.047-1.471-.02.006-.034.033-.04.046-.116.223-.034.514.155.695.354.35.944.338 1.373.56.628.358.835 1.18.747 1.898-.102.712-.441 1.367-.649 2.058-.207.69-.27 1.488.138 2.082.155.213.39.4.654.47.256.05.561-.025.742-.247.115-.157.157-.368.265-.545.494.073 1.008.14 1.201.056z" opacity="1" data-original="#a5c0dd"></path><path fill="#095da4" d="M15.137 33.18c.072.14.234.217.39.216.547-.001.972-.715.493-.926-.366-.163-1.12.255-.883.71zM16.546 32.738c.016.104.102.188.202.222.35.118.772-.244.514-.483-.197-.182-.767-.08-.716.261z" opacity="1" data-original="#095da4"></path><path fill="#ffb65f" d="M11.893 37.341c-.246.792-.512 1.73-.802 2.769-.81-.012-2.297-.282-2.734-.946-.395-.564-.175-1.499.71-1.926.82-.42 1.978-.314 2.826.103zM10.833 41.08c-.245.913-.5 1.87-.72 2.803a5.985 5.985 0 0 1-2.017-.383c-.381-.12-.778-.304-1.008-.616-.259-.318-.29-.765-.13-1.122.5-1.24 2.606-1.224 3.875-.682zM9.303 48.045c-.895-.009-2.65-.317-3.19-1.007a1.129 1.129 0 0 1-.128-1.137c.475-1.177 2.531-1.255 3.833-.692a32.15 32.15 0 0 0-.515 2.836z" opacity="1" data-original="#ffb65f"></path><path fill="#f72f43" d="m27.417 42.223-.662 2.819a1.163 1.163 0 0 1-1.502.843l-3.836-1.246a1.174 1.174 0 0 1-.775-1.378l.506-2.156c.14-.592.704-.977 1.308-.889l3.992.582c.676.105 1.125.76.97 1.425z" opacity="1" data-original="#f72f43"></path><path fill="#e2212e" d="m26.863 44.582-.108.46c-.065.276-.214.5-.434.653-.281.235-.69.322-1.068.19l-3.836-1.246a1.174 1.174 0 0 1-.775-1.378l.506-2.156a1.169 1.169 0 0 1 1.308-.889l.22.03c-.358 1.128.115 2.609 1.577 3.518.808.498 1.672.704 2.61.818z" opacity="1" data-original="#e2212e"></path><path d="M26.321 45.695c-.281.235-.69.322-1.068.19l-3.836-1.246a1.174 1.174 0 0 1-.775-1.378l.506-2.156c.084-.357.324-.646.638-.787-.318.695-.648 1.79-.43 2.518.13.408.428.747.758 1.04 1.077.965 2.493 1.502 3.911 1.749.105.014.207.038.296.07z" fill="#000000" opacity="1" data-original="#000000"></path><path fill="#ffca28" d="M34.859 29.79c-.426-1.75-2.074-9.196-2.15-9.512-.013-.055-.066-.17-.053-.224-.064-.268-.124-.522-.06-.795.1-.323.423-.379.655-.15.331.325.265.498 1.336 7.636-.036.155.065.436.088.596l.348 2.286c.016.105-.118.355-.164.164z" opacity="1" data-original="#ffca28"></path><path fill="#e2212e" d="m34.79 26.66-.002.01c-.234.504-.686.638-1.152.225-.678-.601-2.95-4.832-.432-5.318.136-.033.266-.035.383-.029 2.08.047 1.587 4.35 1.203 5.112z" opacity="1" data-original="#e2212e"></path><path fill="#f72f43" d="m34.79 26.66-.002.01a.306.306 0 0 1-.087-.042c-.716-.433-1.054-1.273-1.257-2.084-.248-1.007-.378-2.04.124-2.957.002-.01.017-.028.02-.039 2.08.047 1.586 4.35 1.202 5.112z" opacity="1" data-original="#f72f43"></path><path fill="#095da4" d="M39.705 35.245c.388.142.574-.088.5-.352-.111-.403-1.12-1.154-1.32-.6-.143.4.525.843.82.952zM38.236 35.235c.273-.223-.547-.858-.673-.509-.092.254.492.657.673.51z" opacity="1" data-original="#095da4"></path></g></svg>