<svg xmlns="http://www.w3.org/2000/svg" version="1.1" xmlns:xlink="http://www.w3.org/1999/xlink" width="512" height="512" x="0" y="0" viewBox="0 0 512 512" style="enable-background:new 0 0 512 512" xml:space="preserve" class="hovered-paths"><g><path fill="#a5c8cd" d="M484.188 474.422c-13.141 0-23.836-10.692-23.836-23.832V35.672a6.643 6.643 0 0 1 13.285 0v414.914c0 5.82 4.734 10.55 10.55 10.55s10.547-4.734 10.547-10.55v-8.68a6.64 6.64 0 0 1 6.641-6.64 6.64 6.64 0 0 1 6.645 6.64v8.68c0 13.144-10.692 23.836-23.833 23.836zm0 0" opacity="1" data-original="#a5c8cd"></path><path fill="#e69b83" d="m194.86 173.613-41.383-49.36c-6.075-7.245-5.125-18.046 2.12-24.124s18.048-5.125 24.126 2.121l34.117 40.695 57.972-17.543c9.055-2.738 18.614 2.38 21.352 11.43 2.738 9.055-2.379 18.61-11.43 21.352L212.941 179a17.12 17.12 0 0 1-18.082-5.387zm0 0" opacity="1" data-original="#e69b83"></path><path fill="#55879b" d="M230.613 178.383a8.588 8.588 0 0 1 2.887-11.797L481.621 16.05c4.055-2.461 9.336-1.168 11.8 2.89 2.458 4.055 1.165 9.34-2.89 11.797l-248.12 150.535c-4.028 2.446-9.321 1.196-11.798-2.89zm0 0" opacity="1" data-original="#55879b"></path><path fill="#46738c" d="M291.824 161.91c-5.219-8.562-2.496-19.77 6.063-24.988 8.582-5.227 19.758-2.52 24.988 6.062 5.215 8.563 2.496 19.774-6.063 24.989-8.582 5.23-19.757 2.52-24.988-6.063zm12.77-13.984a5.3 5.3 0 0 0-1.77 7.277 5.295 5.295 0 0 0 7.281 1.77 5.303 5.303 0 0 0 1.766-7.282 5.291 5.291 0 0 0-7.277-1.765zm0 0" opacity="1" data-original="#46738c"></path><path fill="#414b82" d="m310.18 311.672-31.227-93.188a20.558 20.558 0 0 0-14.348-13.37L152.812 194.55c-10.988-2.836-22.742 3.644-25.035 14.758-1.12 5.437.524 12.164 1.657 14.613 2.238 4.84 7.484 8.973 13.105 10.422l100.992 7.773 23.305 69.555zm0 0" opacity="1" data-original="#414b82" class="hovered-path"></path><path fill="#64afff" d="M129.434 223.922c-3.95-9.246-4.98-20.695-5.524-27.711l-4.7-60.785c0-27.344 22.165-49.508 49.509-49.508h13.539c16.754 0 30.336 13.582 30.336 30.336l-.332 80.8zm0 0" opacity="1" data-original="#64afff"></path><path fill="#ffb69e" d="M190.383.094c-20.871-1.48-38.988 14.238-40.473 35.11-1.48 20.866 14.238 38.987 35.11 40.468 20.867 1.48 38.988-14.234 40.468-35.106S211.254 1.578 190.383.094zM256.129 206.883l-71.125-10.34a17.127 17.127 0 0 1-13.871-11.809l-5.715-18.168 13.527-18.53 19.25 8.597 2.38 7.562 60.48 8.793c9.36 1.364 15.843 10.055 14.484 19.41-1.36 9.348-10.039 15.848-19.41 14.485zm0 0" opacity="1" data-original="#ffb69e"></path><path fill="#4699f2" d="m198.195 156.633-15.261-48.52c-2.836-9.02-12.457-14.031-21.473-11.195-9.02 2.836-14.031 12.45-11.195 21.473l15.152 48.175zm0 0" opacity="1" data-original="#4699f2"></path><path fill="#55879b" d="m114.203 460.227-5.441-5.485c-.614-.617-.188-1.668.683-1.68l11.309-.183a2.26 2.26 0 0 0 2.156-1.762c.3-1.293.461-2.625.461-3.988 0-12.133-12.45-21.969-27.808-21.969s-54.227 9.836-54.227 21.969c0 12.133 38.867 21.969 54.227 21.969 7.027 0 13.44-2.059 18.335-5.453 1.145-.793 1.282-2.434.305-3.418zm0 0" opacity="1" data-original="#55879b"></path><path fill="#87afb9" d="M46.996 447.129c0-7.89-5.762-14.438-13.305-15.664-1.183-.192-2.136.957-1.742 2.086 1.278 3.633 3.586 10.601 3.586 13.578 0 2.976-2.308 9.945-3.586 13.578-.394 1.129.559 2.277 1.742 2.086 7.543-1.227 13.305-7.773 13.305-15.664zm0 0" opacity="1" data-original="#87afb9"></path><path fill="#a5c8cd" d="M102.531 439.387c0 1.39-1.129 2.52-2.523 2.52a2.521 2.521 0 1 1 0-5.044 2.522 2.522 0 0 1 2.523 2.524zm0 0" opacity="1" data-original="#a5c8cd"></path><path fill="#55879b" d="m345.46 497.223-5.44-5.485c-.614-.617-.188-1.668.683-1.68l11.313-.183a2.258 2.258 0 0 0 2.152-1.766c.305-1.289.46-2.62.46-3.984 0-12.133-12.448-21.969-27.808-21.969s-54.222 9.836-54.222 21.969 38.863 21.969 54.222 21.969c7.028 0 13.442-2.059 18.336-5.457 1.145-.79 1.285-2.43.305-3.414zm0 0" opacity="1" data-original="#55879b"></path><path fill="#87afb9" d="M278.254 484.125c0-7.89-5.758-14.438-13.305-15.664-1.18-.191-2.137.957-1.738 2.086 1.277 3.633 3.582 10.601 3.582 13.578s-2.305 9.945-3.582 13.578c-.399 1.129.555 2.281 1.738 2.086 7.547-1.226 13.305-7.773 13.305-15.664zm0 0" opacity="1" data-original="#87afb9"></path><path fill="#a5c8cd" d="M333.79 476.379a2.522 2.522 0 1 1-5.046.002 2.522 2.522 0 0 1 5.045-.002zm0 0" opacity="1" data-original="#a5c8cd"></path><path fill="#73c8f0" d="M409.422 401.563c-8.531 0-17.059-2.11-23.707-6.325-7.207-4.57-19.848-4.566-27.05 0-13.294 8.43-34.114 8.43-47.411 0-7.203-4.566-19.848-4.57-27.05 0-13.298 8.43-34.118 8.43-47.411 0-7.207-4.57-19.848-4.566-27.05 0-13.298 8.43-34.118 8.43-47.411 0-7.207-4.566-19.848-4.566-27.055 0-4.433 2.813-10.3 1.496-13.113-2.933-2.809-4.434-1.496-10.305 2.938-13.118 13.289-8.43 34.113-8.43 47.406 0 7.207 4.57 19.851 4.57 27.054 0 13.29-8.43 34.118-8.43 47.407 0 7.207 4.57 19.847 4.57 27.054 0 13.293-8.43 34.118-8.43 47.407 0 7.207 4.57 19.851 4.57 27.054 0 13.293-8.43 34.118-8.43 47.41 0 7.204 4.57 19.844 4.57 27.051 0 13.293-8.43 34.117-8.43 47.41 0 7.204 4.57 19.844 4.57 27.051 0 4.434-2.812 10.305-1.496 13.117 2.938 2.809 4.434 1.493 10.305-2.937 13.113-13.293 8.43-34.117 8.43-47.41 0-7.207-4.57-19.848-4.566-27.051 0-6.648 4.215-15.176 6.325-23.703 6.325zm0 0" opacity="1" data-original="#73c8f0"></path><path fill="#466e28" d="M345.29 318.328H59.624c-30.281 0-54.828-24.547-54.828-54.828s24.547-54.832 54.828-54.832h285.664c30.277 0 54.828 24.55 54.828 54.832s-24.55 54.828-54.828 54.828zm0 0" opacity="1" data-original="#466e28"></path><g fill="#64822d"><path d="M108.172 250.758c-29.996 0-54.399-19.567-54.399-43.621 0-5.57 4.516-10.09 10.09-10.09s10.09 4.52 10.09 10.09c0 12.707 15.672 23.445 34.219 23.445 18.55 0 34.223-10.738 34.223-23.445 0-5.57 4.515-10.09 10.09-10.09 5.57 0 10.085 4.52 10.085 10.09 0 24.054-24.402 43.62-54.398 43.62zm0 0" fill="#64822d" opacity="1" data-original="#64822d"></path><path d="M197.219 250.758c-29.996 0-54.399-19.567-54.399-43.621 0-5.57 4.52-10.09 10.09-10.09 5.574 0 10.09 4.52 10.09 10.09 0 12.707 15.672 23.445 34.219 23.445 18.55 0 34.222-10.738 34.222-23.445 0-5.57 4.516-10.09 10.09-10.09 5.57 0 10.09 4.52 10.09 10.09 0 24.054-24.406 43.62-54.402 43.62zm0 0" fill="#64822d" opacity="1" data-original="#64822d"></path><path d="M285.664 250.758c-29.996 0-54.398-19.567-54.398-43.621 0-5.57 4.515-10.09 10.09-10.09 5.57 0 10.09 4.52 10.09 10.09 0 12.707 15.667 23.445 34.218 23.445 18.547 0 34.219-10.738 34.219-23.445 0-5.57 4.52-10.09 10.09-10.09 5.574 0 10.09 4.52 10.09 10.09 0 24.054-24.403 43.62-54.399 43.62zm0 0" fill="#64822d" opacity="1" data-original="#64822d"></path></g><path fill="#73c8f0" d="M214.273 334.727c-8.53 0-17.058-2.106-23.703-6.32-7.207-4.571-19.851-4.571-27.054 0-13.293 8.425-34.114 8.429-47.41 0-7.204-4.571-19.848-4.571-27.051 0-13.293 8.425-34.118 8.425-47.41 0-7.204-4.571-19.848-4.571-27.051 0-4.434 2.808-10.305 1.491-13.117-2.938-2.809-4.434-1.493-10.305 2.937-13.114 13.293-8.43 34.117-8.43 47.41 0 7.207 4.567 19.848 4.567 27.051 0 13.293-8.43 34.117-8.43 47.41 0 7.207 4.567 19.848 4.567 27.05 0 13.294-8.43 34.118-8.43 47.411 0 7.207 4.567 19.848 4.567 27.05 0 13.294-8.43 34.118-8.43 47.411 0 7.207 4.567 19.848 4.567 27.055 0 13.289-8.43 34.113-8.43 47.406 0 7.207 4.567 19.848 4.567 27.055 0 4.43-2.812 10.3-1.496 13.113 2.934 2.809 4.434 1.496 10.305-2.938 13.117-13.289 8.426-34.113 8.43-47.406 0-7.207-4.57-19.847-4.57-27.054 0-13.29 8.426-34.114 8.43-47.407 0-7.207-4.57-19.847-4.57-27.054 0-6.645 4.211-15.176 6.32-23.704 6.32zm0 0" opacity="1" data-original="#73c8f0"></path></g></svg>