<svg xmlns="http://www.w3.org/2000/svg" version="1.1" xmlns:xlink="http://www.w3.org/1999/xlink" width="512" height="512" x="0" y="0" viewBox="0 0 512 512" style="enable-background:new 0 0 512 512" xml:space="preserve" class=""><g><path fill="#bc5e51" d="m438.33 81.58-13.92-.28a385.75 385.75 0 0 0-253.15 87.98 11.43 11.43 0 0 1-7.28 2.62c-3.48 0-6.93-1.58-9.18-4.6a11.407 11.407 0 0 1-2.29-6.86c0-3.28 1.41-6.53 4.1-8.79 59.93-50.22 135.21-77.16 212.22-77.16 18.55 0 37.2 1.56 55.76 4.74z" opacity="1" data-original="#bc5e51"></path><path fill="#b0b5ca" d="M437.336 76.573c-2.762 0-5 2.24-4.998 5.002l.112 130.755 10-.01-.117-130.754a4.998 4.998 0 0 0-4.998-4.993z" opacity="1" data-original="#b0b5ca"></path><g fill="#4689d3"><path d="M496 333.108c-16.024 0-24.117 3.808-31.943 7.49-7.146 3.363-13.896 6.539-27.685 6.539-5.132 0-9.602-.436-13.665-1.331a5.001 5.001 0 0 0-2.152 9.766c4.779 1.054 9.953 1.565 15.817 1.565 16.024 0 24.117-3.808 31.943-7.49 7.146-3.363 13.896-6.539 27.685-6.539a5 5 0 1 0 0-10zM259.553 333.131a92.092 92.092 0 0 0-2.058-.022c-16.023 0-24.115 3.808-31.939 7.49-7.145 3.363-13.894 6.539-27.681 6.539s-20.537-3.176-27.683-6.539c-7.825-3.683-15.917-7.49-31.94-7.49s-24.116 3.808-31.941 7.49c-7.146 3.363-13.895 6.539-27.683 6.539s-20.536-3.176-27.682-6.539c-7.825-3.683-15.917-7.49-31.939-7.49a5 5 0 1 0 0 10c13.788 0 20.536 3.176 27.682 6.539 7.825 3.683 15.917 7.49 31.939 7.49s24.116-3.808 31.941-7.49c7.146-3.363 13.895-6.539 27.683-6.539s20.537 3.176 27.683 6.539c7.825 3.683 15.917 7.49 31.94 7.49s24.114-3.808 31.939-7.49c7.145-3.363 13.894-6.539 27.682-6.539.628 0 1.242.008 1.843.021 2.746.101 5.047-2.131 5.106-4.892a5 5 0 0 0-4.892-5.106z" fill="#4689d3" opacity="1" data-original="#4689d3"></path></g><path fill="#49bdff" d="M463.02 258.05c0 6.75-.78 13.49-2.33 20.09-6.7 3.09-14.06 5.86-27.32 5.86-7.75 0-13.49-.95-18.26-2.36a87.622 87.622 0 0 1-.75-44.27 55.866 55.866 0 0 0 46.18 0 87.045 87.045 0 0 1 2.48 20.68z" opacity="1" data-original="#49bdff"></path><g fill="#a0eaea"><path d="m461.05 423.91-1.47 1.38c-8.11 7.66-17.65 12.9-27.71 15.72a39.946 39.946 0 0 1 0-34.21c10.06 2.82 19.6 8.06 27.71 15.72zM437.45 196.32c11.75 11.75 19.45 26.01 23.09 41.05a55.866 55.866 0 0 1-46.18 0c3.64-15.04 11.34-29.3 23.09-41.05zM428.18 344.74l-2.13 2.02c-11.79 11.13-25.65 18.75-40.28 22.85a58.12 58.12 0 0 1 0-49.73c14.62 4.1 28.49 11.71 40.28 22.85z" fill="#a0eaea" opacity="1" data-original="#a0eaea" class=""></path></g><path fill="#49bdff" d="M431.87 406.8a39.946 39.946 0 0 0 0 34.21c-22.54 6.34-47.71.59-65.36-17.1 13.02-13.05 30.13-19.61 47.26-19.61 6.09 0 12.19.83 18.1 2.5zM385.77 319.88a58.12 58.12 0 0 0 0 49.73c-31.2 8.77-65.87 1.6-91.25-21.31-1.27-1.15-2.52-2.34-3.74-3.56 18.92-18.96 43.79-28.49 68.68-28.49 8.85 0 17.71 1.21 26.31 3.63z" opacity="1" data-original="#49bdff"></path><path fill="#a0eaea" d="m366.51 423.91-21.91 13.96c-2.03 1.29-4.44-1-3.24-3.09l6.19-10.87-6.19-10.87c-1.2-2.09 1.21-4.38 3.24-3.09z" opacity="1" data-original="#a0eaea" class=""></path><path fill="#d8a43d" d="m352.12 164.32-11.59 26.46-313.05 51.64-3.92-23.91z" opacity="1" data-original="#d8a43d"></path><path fill="#daaa79" d="m340.53 190.78-32.05 73.14a24.333 24.333 0 0 1-21.01 14.53c-8.67-3.91-15.98-8.48-32.98-8.48-29.81 0-29.81 14.03-59.62 14.03s-29.81-14.03-59.62-14.03S105.43 284 75.62 284c-19.38 0-26.16-5.93-36.72-10.08A26.858 26.858 0 0 1 30.03 258l-2.55-15.58z" opacity="1" data-original="#daaa79"></path><path fill="#d4e1f4" d="M290.78 344.74c1.22 1.22 2.47 2.41 3.74 3.56-1.95-.75-3.77-1.57-5.56-2.4z" opacity="1" data-original="#d4e1f4"></path><path fill="#a0eaea" d="m290.78 344.74-1.82 1.16-30.03 19.13c-2.95 1.88-6.45-1.44-4.72-4.48l9-15.81-3.76-6.61h-.01l-5.23-9.19c-1.73-3.04 1.77-6.37 4.72-4.49zM214.74 386.83l-2.13 2.01c-11.79 11.13-25.65 18.75-40.28 22.86-7.46-15.74-7.46-34 0-49.74 14.63 4.11 28.49 11.73 40.28 22.86z" opacity="1" data-original="#a0eaea" class=""></path><path fill="#49bdff" d="M172.33 361.96c-7.46 15.74-7.46 34 0 49.74-32.76 9.21-69.34.85-95-24.87 18.92-18.97 43.79-28.5 68.68-28.5 8.86 0 17.72 1.21 26.32 3.63z" opacity="1" data-original="#49bdff"></path><path fill="#a0eaea" d="m77.33 386.83-31.85 20.29c-2.95 1.88-6.45-1.45-4.71-4.49l9-15.8-9-15.8c-1.74-3.04 1.76-6.37 4.71-4.49z" opacity="1" data-original="#a0eaea" class=""></path><path fill="#bc882b" d="M48.578 214.384 23.56 218.51l3.92 23.91 25.179-4.153z" opacity="1" data-original="#bc882b"></path><path fill="#bc8c61" d="M64.9 273.92A26.858 26.858 0 0 1 56.03 258l-3.371-19.733-25.179 4.153L30.03 258a26.858 26.858 0 0 0 8.87 15.92C49.46 278.07 56.24 284 75.62 284c5.109 0 9.328-.419 12.986-1.102-10.205-1.909-15.935-5.924-23.706-8.978z" opacity="1" data-original="#bc8c61"></path><g fill="#d4e1f4"><path d="M269.791 134.39a5 5 0 0 1-2.087-9.546 391.536 391.536 0 0 1 80.489-26.792 5 5 0 0 1 2.11 9.775 381.426 381.426 0 0 0-78.431 26.106 4.977 4.977 0 0 1-2.082.456zM367.875 104.396a5 5 0 0 1-.808-9.935 392.403 392.403 0 0 1 16.609-2.373c2.729-.329 5.232 1.622 5.564 4.363a5 5 0 0 1-4.363 5.564 382.53 382.53 0 0 0-16.184 2.312 5.073 5.073 0 0 1-.819.067z" fill="#d4e1f4" opacity="1" data-original="#d4e1f4"></path></g><path fill="#4689d3" d="M433.366 288.996c-16.024 0-24.117-3.808-31.943-7.49-7.146-3.363-13.896-6.539-27.685-6.539s-20.538 3.176-27.684 6.539c-7.826 3.683-15.917 7.49-31.941 7.49s-24.115-3.808-31.94-7.49c-7.146-3.363-13.895-6.539-27.683-6.539s-20.537 3.176-27.682 6.539c-7.825 3.683-15.917 7.49-31.939 7.49s-24.115-3.808-31.94-7.49c-7.146-3.363-13.895-6.539-27.683-6.539s-20.538 3.176-27.683 6.539c-7.825 3.683-15.917 7.49-31.941 7.49s-24.115-3.808-31.939-7.49c-7.146-3.363-13.894-6.539-27.682-6.539a5 5 0 1 1 0-10c16.023 0 24.114 3.808 31.939 7.49 7.145 3.363 13.894 6.539 27.682 6.539s20.538-3.176 27.683-6.539c7.825-3.683 15.917-7.49 31.941-7.49s24.115 3.808 31.94 7.49c7.146 3.363 13.895 6.539 27.683 6.539s20.536-3.176 27.681-6.539c7.825-3.683 15.917-7.49 31.94-7.49s24.116 3.808 31.941 7.49c7.146 3.363 13.895 6.539 27.683 6.539s20.538-3.176 27.684-6.539c7.826-3.683 15.917-7.49 31.942-7.49s24.117 3.808 31.943 7.49c7.146 3.363 13.896 6.539 27.685 6.539s20.539-3.176 27.685-6.539c7.826-3.683 15.918-7.49 31.943-7.49a5 5 0 1 1 0 10c-13.79 0-20.539 3.176-27.685 6.539-7.826 3.683-15.918 7.49-31.943 7.49z" opacity="1" data-original="#4689d3"></path><g fill="#80cecc"><circle cx="187" cy="387" r="5" fill="#80cecc" opacity="1" data-original="#80cecc"></circle><circle cx="442" cy="424" r="5" fill="#80cecc" opacity="1" data-original="#80cecc"></circle><circle cx="400" cy="345" r="5" fill="#80cecc" opacity="1" data-original="#80cecc"></circle><circle cx="437" cy="223" r="5" fill="#80cecc" opacity="1" data-original="#80cecc"></circle></g><path fill="#b0b5ca" d="M231.68 156.05c-5.25-10.92-18.35-15.52-29.27-10.28-11.295 5.381-15.798 19.318-9.76 30.28 5.54 10.2 18.17 14.36 28.75 9.28 10.92-5.25 15.52-18.35 10.28-29.28z" opacity="1" data-original="#b0b5ca"></path><path fill="#4a5160" d="M178.51 188.467a5.001 5.001 0 0 1-2.327-9.429l32.979-17.296a5 5 0 1 1 4.644 8.855l-32.979 17.296a4.976 4.976 0 0 1-2.318.573z" opacity="1" data-original="#4a5160"></path></g></svg>