<svg width="26" height="26" viewBox="0 0 26 26" fill="none" xmlns="http://www.w3.org/2000/svg">
<path d="M7.25842 10.0315L13.0001 13.3573L18.6984 10.0532" stroke="#B9B9B9" stroke-width="1.5" stroke-linecap="round" stroke-linejoin="round"/>
<path d="M13.0001 19.2506V13.3464" stroke="#B9B9B9" stroke-width="1.5" stroke-linecap="round" stroke-linejoin="round"/>
<path d="M11.6567 6.81409L8.19002 8.74242C7.41002 9.17576 6.76001 10.2699 6.76001 11.1691V14.8416C6.76001 15.7408 7.39918 16.8349 8.19002 17.2683L11.6567 19.1966C12.3934 19.6083 13.6067 19.6083 14.3542 19.1966L17.8209 17.2683C18.6009 16.8349 19.2508 15.7408 19.2508 14.8416V11.1583C19.2508 10.2591 18.6117 9.16492 17.8209 8.73159L14.3542 6.80326C13.6067 6.39159 12.3934 6.39159 11.6567 6.81409Z" stroke="#B9B9B9" stroke-width="1.5" stroke-linecap="round" stroke-linejoin="round"/>
<path d="M23.8333 16.25C23.8333 20.4425 20.4425 23.8333 16.25 23.8333L17.3875 21.9375" stroke="#B9B9B9" stroke-width="1.5" stroke-linecap="round" stroke-linejoin="round"/>
<path d="M2.16663 9.75008C2.16663 5.55758 5.55746 2.16675 9.74996 2.16675L8.61247 4.06258" stroke="#B9B9B9" stroke-width="1.5" stroke-linecap="round" stroke-linejoin="round"/>
</svg>
