<svg width="26" height="24" viewBox="0 0 26 24" fill="none" xmlns="http://www.w3.org/2000/svg">
<path d="M13.0001 14H14.0834C15.2751 14 16.2501 13.1 16.2501 12V2H6.50006C4.87506 2 3.4559 2.82999 2.71924 4.04999" stroke="#B9B9B9" stroke-width="1.5" stroke-linecap="round" stroke-linejoin="round"/>
<path d="M2.16663 17C2.16663 18.66 3.61829 20 5.41663 20H6.49996C6.49996 18.9 7.47496 18 8.66663 18C9.85829 18 10.8333 18.9 10.8333 20H15.1666C15.1666 18.9 16.1416 18 17.3333 18C18.525 18 19.5 18.9 19.5 20H20.5833C22.3816 20 23.8333 18.66 23.8333 17V14H20.5833C19.9875 14 19.5 13.55 19.5 13V10C19.5 9.45 19.9875 9 20.5833 9H21.9808L20.1283 6.01001C19.7383 5.39001 19.0233 5 18.2433 5H16.25V12C16.25 13.1 15.275 14 14.0833 14H13" stroke="#B9B9B9" stroke-width="1.5" stroke-linecap="round" stroke-linejoin="round"/>
<path d="M8.66667 22C9.86328 22 10.8333 21.1046 10.8333 20C10.8333 18.8954 9.86328 18 8.66667 18C7.47005 18 6.5 18.8954 6.5 20C6.5 21.1046 7.47005 22 8.66667 22Z" stroke="#B9B9B9" stroke-width="1.5" stroke-linecap="round" stroke-linejoin="round"/>
<path d="M17.3333 22C18.5299 22 19.5 21.1046 19.5 20C19.5 18.8954 18.5299 18 17.3333 18C16.1367 18 15.1666 18.8954 15.1666 20C15.1666 21.1046 16.1367 22 17.3333 22Z" stroke="#B9B9B9" stroke-width="1.5" stroke-linecap="round" stroke-linejoin="round"/>
<path d="M23.8333 12V14H20.5833C19.9875 14 19.5 13.55 19.5 13V10C19.5 9.45 19.9875 9 20.5833 9H21.9808L23.8333 12Z" stroke="#B9B9B9" stroke-width="1.5" stroke-linecap="round" stroke-linejoin="round"/>
<path d="M2.16663 8H8.66663" stroke="#B9B9B9" stroke-width="1.5" stroke-linecap="round" stroke-linejoin="round"/>
<path d="M2.16663 11H6.49996" stroke="#B9B9B9" stroke-width="1.5" stroke-linecap="round" stroke-linejoin="round"/>
<path d="M2.16663 14H4.33329" stroke="#B9B9B9" stroke-width="1.5" stroke-linecap="round" stroke-linejoin="round"/>
</svg>
